<svg xmlns="http://www.w3.org/2000/svg" viewBox="0 0 490.4 490.4" width="512" height="512"><path d="M99.15 147.2v51.2h-3.4c-21.5 0-38.9 17.4-38.9 38.9v214.2c0 21.5 17.4 38.9 38.9 38.9h298.9c21.5 0 38.9-17.4 38.9-38.9V237.3c0-21.5-17.4-38.9-38.9-38.9h-1v-51.2c0-81.2-66-147.2-147.2-147.2-81.3 0-147.3 66.1-147.3 147.2zm169 206.8c-3 2.2-3.8 4.4-3.8 7.8.1 15.7.1 31.4.1 47.1.3 6.5-3 12.9-8.8 15.9-13.8 7-27.5-2.8-27.5-15.8v-.1c0-15.8 0-31.5.1-47.3 0-3.2-.7-5.3-3.5-7.4-14.3-10.5-18.9-28.4-11.8-44.2 6.9-15.4 23.8-24.3 39.8-21.1 17.7 3.6 30.1 17.9 30.2 35.6.1 12.2-4.9 22.3-14.8 29.5zm-104.6-206.8c0-45.7 37.2-82.8 82.8-82.8 45.7 0 82.8 37.2 82.8 82.8v51.2h-165.6v-51.2z" fill="#f68026"/></svg>