<svg id="Layer_1" xmlns="http://www.w3.org/2000/svg" xmlns:xlink="http://www.w3.org/1999/xlink" viewBox="0 0 99 33"><style>.st0{display:none}.st1{clip-path:url(#SVGID_2_)}.st2{fill:url(#SVGID_3_)}.st3,.st4{opacity:.14;fill:#fff}.st4{opacity:4e-2}.st5{opacity:.5;fill:url(#SVGID_4_)}.st6{fill:#fff}.st7{clip-path:url(#SVGID_6_)}.st8{display:inline}.st9{fill:#18318d}.st10{fill:#fff;stroke:#bdbdbd;stroke-miterlimit:10}.st11{fill:#e0e0e0}.st12{fill:none;stroke:#ff8013;stroke-miterlimit:10}.st13{fill:#ff8013}.st14{fill:#fcc345}.st15{fill:#d39b15}.st16{fill:#bbb}.st17{fill:#dedede}.st18,.st19{fill:none;stroke:#ff8013;stroke-width:.5;stroke-miterlimit:10}.st19{stroke:#bbb;stroke-width:.75}.st20{opacity:.5}.st21{display:inline;fill:url(#degrade_branco_1_)}.st22{opacity:.95}.st23{fill:url(#SVGID_49_)}.st24{display:none;fill:none;stroke:#fff;stroke-miterlimit:10}</style><image width="1350" height="589" xlink:href="9BBFD0.jpg" transform="translate(-1155 -773)" overflow="visible"/><defs><path id="SVGID_1_" d="M248-775h1366v548H248z"/></defs><clipPath id="SVGID_2_"><use xlink:href="#SVGID_1_" overflow="visible"/></clipPath><g id="BG_BLUE" class="st1"><linearGradient id="SVGID_3_" gradientUnits="userSpaceOnUse" x1="1239.665" y1="78.123" x2="622.335" y2="-991.123"><stop offset="0" stop-color="#18318d"/><stop offset="1" stop-color="#4b65c6"/></linearGradient><path class="st2" d="M248-775h1366v637H248z"/><path class="st3" d="M1234-134H248v-640"/><path class="st4" d="M249-392v-383h383"/></g><g id="HEADER"><linearGradient id="SVGID_4_" gradientUnits="userSpaceOnUse" x1="931" y1="-775" x2="931" y2="-658"><stop offset="0"/><stop offset="1" stop-opacity="0"/></linearGradient><path class="st5" d="M248-775h1366v117H248z"/><image width="283" height="59" id="Logo" xlink:href="9BBFD0.png" transform="translate(284 -750)" overflow="visible"/><g id="Minha_Conta"><path fill="none" d="M1345-738h50v35h-50z"/><text transform="translate(1345 -725.076)"><tspan x="0" y="0" class="st6" font-family="Cairo-Regular" font-size="18">Minha</tspan><tspan x="0" y="21.6" class="st6" font-family="Cairo-Bold" font-size="18">Conta</tspan></text><path id="hover-blue" class="st6" d="M1312.5-743c-12.4 0-22.5 10.1-22.5 22.5s10.1 22.5 22.5 22.5 22.5-10.1 22.5-22.5-10.1-22.5-22.5-22.5zm0 6.7c3.8 0 6.8 2.9 6.8 6.8s-2.9 6.8-6.8 6.8-6.8-2.9-6.8-6.8 3-6.8 6.8-6.8zm0 32c-5.6 0-10.6-2.9-13.5-7.2 0-4.5 9-7 13.5-7s13.5 2.5 13.5 7c-2.9 4.3-7.9 7.2-13.5 7.2z"/></g><g id="Minicart"><path fill="none" d="M1515-736h63v35h-63z"/><text transform="translate(1515 -723.076)"><tspan x="0" y="0" class="st6" font-family="Cairo-Regular" font-size="18">0 Itens:</tspan><tspan x="0" y="21.6" class="st6" font-family="Cairo-Bold" font-size="18">R$ 0,00</tspan></text><path id="hover-blue_1_" class="st6" d="M1498.6-714.9l5.3-15.9c.3-.8.1-1.2-.2-1.5-.6-.8-1.7-.8-1.9-.8h-30.1l-.8-3.8c-.2-.9-.9-1.8-2.1-1.8h-8.4c-.9 0-1.4.4-1.4 1.2v2.2c0 .8.5 1 1.4 1h7.1l5.5 23.2c-.9.9-1.3 2.3-1.3 3.5 0 2.7 2.2 5.3 5 5.3 2.6 0 4.6-2.5 4.9-3.9h10.6c.3 1.5 1.9 4 4.9 4 2.7 0 5-2.4 5-5.1 0-2.7-1.7-5.2-5-5.2-1.4 0-3 .7-3.8 1.8h-13.1c-.9-1.5-2.2-1.9-3.6-2l-.2-1h19.9c1.7 0 2-.5 2.3-1.2zm-1.4 5.6c1 0 1.9.8 1.9 1.9s-.8 1.9-1.9 1.9c-1 0-1.9-.8-1.9-1.9 0-1.1.8-1.9 1.9-1.9zm-18.7 1.8c0 1-.8 1.9-1.9 1.9-1 0-1.9-.9-1.9-1.9 0-1 .9-1.9 1.9-1.9 1 0 1.9.9 1.9 1.9z"/></g></g><g id="Foto_Modelo"><defs><path id="SVGID_5_" d="M563-646.3h340v397.7H563z"/></defs><clipPath id="SVGID_6_"><use xlink:href="#SVGID_5_" overflow="visible"/></clipPath><g id="DV2981_-_SAGRADA_FAMÍLIA_-_BRANCO__x28_1_x29_.tif" class="st7"><image width="4480" height="6720" id="DV2981_-_SAGRADA_FAMÍLIA_-_BRANCO__x28_1_x29__2_" xlink:href="9BBFD1.png" transform="translate(498.897 -660.907) scale(.1037)" overflow="visible"/></g></g><image width="1349" height="298" xlink:href="9BBFD3.jpg" transform="translate(2251 45)" overflow="visible"/><g id="Campanha_Pai_x1F__x1F_"><path class="st6" d="M996-579.4v-32.4c0-.7.1-1.2.3-1.5.2-.3.7-.4 1.4-.4h2.4c.6 0 1 .1 1.2.4.2.3.4.7.4 1.2l.1 3.7c1.5-2 3.2-3.6 5.2-4.7s4.4-1.7 7.2-1.7c2.2 0 4.2.6 6 1.7 1.7 1.1 2.9 2.7 3.5 4.8 1.3-2 3.1-3.6 5.2-4.8 2.1-1.1 4.6-1.7 7.4-1.7 3.5 0 6.2 1.1 8.3 3.2 2.1 2.1 3.1 5.3 3.1 9.5v22.8c0 1.5-.8 2.3-2.4 2.3h-2c-.8 0-1.4-.2-1.8-.6-.4-.4-.5-1-.5-1.7v-22.4c0-2.8-.6-4.8-1.7-6-1.1-1.2-2.9-1.8-5.1-1.8-2.6 0-4.8.9-6.5 2.6-1.7 1.7-2.6 3.9-2.6 6.6v21.1c0 1.5-.8 2.3-2.3 2.3h-1.9c-.8 0-1.4-.2-1.8-.6-.4-.4-.5-1-.5-1.7v-23c0-2.5-.5-4.3-1.6-5.5-1.1-1.2-2.7-1.8-4.9-1.8-2.7 0-4.9.9-6.8 2.7-1.8 1.8-2.7 4.1-2.7 6.9v20.7c0 .8-.2 1.3-.5 1.7-.4.4-.9.6-1.8.6h-2c-1.5-.2-2.3-1-2.3-2.5zM1066.4-578c-3.2-1.3-5.7-3.4-7.6-6.2-1.9-2.8-2.9-6.3-2.9-10.6 0-6.6 1.7-11.6 5.1-15 3.4-3.4 8.3-5.1 14.6-5.1 6.3 0 11 1.6 14.1 4.9 3.2 3.3 4.7 8.2 4.7 14.6 0 1.4-.7 2.1-2 2.1h-30c0 4 1.3 7.1 4 9.2 2.6 2.1 6.3 3.1 11 3.1 4.4 0 8.2-1 11.4-3 .3-.2.5-.2.7-.2.3 0 .5.2.7.5l1.4 2.5c.1.2.2.4.2.6 0 .4-.2.7-.6.9-2 1.3-4.2 2.2-6.5 2.8-2.3.6-5 .9-8 .9-3.7 0-7.1-.6-10.3-2zm21.7-20c0-3.8-1-6.8-3.1-8.9-2.1-2.1-5.2-3.2-9.3-3.2-4.2 0-7.5 1.1-9.7 3.3-2.3 2.2-3.4 5.1-3.4 8.8h25.5zM1106.7-579.5c-2.6-2.3-3.9-5.7-3.9-10.2v-21.8c0-1.5.8-2.3 2.3-2.3h2.4c.8 0 1.4.2 1.8.6.4.4.5 1 .5 1.7v21.7c0 2.9.8 5.1 2.3 6.4 1.6 1.3 3.9 2 6.9 2 3.3 0 6-.9 8.2-2.7 2.2-1.8 3.4-4.1 3.4-6.9v-20.7c0-1.5.8-2.3 2.4-2.3h2.3c.8 0 1.4.2 1.8.6.4.4.5 1 .5 1.7v32.4c0 .7-.1 1.2-.3 1.5-.2.3-.7.4-1.3.4h-2.5c-.6 0-.9-.1-1.1-.4-.2-.3-.3-.7-.4-1.2l-.2-3.7c-1.7 2.1-3.8 3.7-6.1 4.8-2.4 1.1-5.3 1.6-8.7 1.6-4.3.3-7.7-.8-10.3-3.2zM1157.1-578.2c-.7-.7-1-1.8-1-3.3v-43.2c0-1.5.3-2.6 1-3.3.7-.7 1.9-1.1 3.5-1.1h18.2c7.6 0 13.2 1.5 16.7 4.5s5.2 7.6 5.2 13.7-1.7 10.7-5.2 13.7-9 4.5-16.6 4.5h-4.6v11.1c0 1.5-.3 2.6-1 3.3-.7.7-1.9 1.1-3.6 1.1h-9.1c-1.7.1-2.8-.3-3.5-1zm20.1-27.4c1.6 0 2.9-.4 3.9-1.3.9-.9 1.4-2.2 1.4-3.9 0-1.8-.5-3.1-1.4-4-.9-.9-2.2-1.3-3.9-1.3h-5.2v10.5h5.2zM1201.6-580.7c-2.8-3.1-4.3-7.5-4.3-13.2 0-4.2 1.1-7.9 3.2-11.1 2.1-3.2 5.1-5.7 8.9-7.4 3.8-1.7 8-2.6 12.8-2.6 4.1 0 7.5.4 10.3 1.2 2.8.8 5.6 2.1 8.3 3.9v30.2c0 1-.2 1.7-.6 2-.4.3-1.2.5-2.3.5h-9.6c-.6 0-1-.1-1.3-.2-.3-.2-.6-.4-.8-.8l-1.2-1.9c-1.5 1.4-3.2 2.4-5.1 3.1-1.9.7-4.2 1-6.9 1-4.8 0-8.6-1.5-11.4-4.7zm21.2-8.5c.8-.7 1.2-1.7 1.2-3v-10.4c-.5-.2-1.1-.3-1.8-.3-2.1 0-3.7.8-4.9 2.3-1.2 1.6-1.8 3.8-1.8 6.7 0 3.8 1.4 5.7 4.1 5.7 1.3.1 2.4-.3 3.2-1zM1247.7-618c-1-1-1.6-2.3-1.6-3.8v-1.9c0-1.5.5-2.7 1.6-3.8 1-1 2.6-1.6 4.5-1.6h6.6c2 0 3.5.5 4.6 1.6 1.1 1 1.6 2.3 1.6 3.8v1.9c0 1.5-.5 2.7-1.6 3.8-1.1 1-2.6 1.6-4.6 1.6h-6.6c-2 0-3.5-.5-4.5-1.6zm-.2 39.8c-.7-.7-1-1.8-1-3.3v-27.9c0-1.5.3-2.6 1-3.3.7-.7 1.9-1.1 3.5-1.1h9.1c1.7 0 2.9.3 3.6 1 .7.7 1 1.8 1 3.3v27.9c0 1.5-.3 2.6-1 3.3-.7.7-1.9 1.1-3.6 1.1h-9.1c-1.7.1-2.9-.3-3.5-1z"/><g><path class="st6" d="M996-508.4v-32.4c0-.7.1-1.2.3-1.5.2-.3.7-.4 1.4-.4h2.4c.6 0 1 .1 1.2.4.2.3.4.7.4 1.2l.1 3.7c1.5-2 3.2-3.6 5.2-4.7s4.4-1.7 7.2-1.7c2.2 0 4.2.6 6 1.7 1.7 1.1 2.9 2.7 3.5 4.8 1.3-2 3.1-3.6 5.2-4.8 2.1-1.1 4.6-1.7 7.4-1.7 3.5 0 6.2 1.1 8.3 3.2 2.1 2.1 3.1 5.3 3.1 9.5v22.8c0 1.5-.8 2.3-2.4 2.3h-2c-.8 0-1.4-.2-1.8-.6-.4-.4-.5-1-.5-1.7v-22.4c0-2.8-.6-4.8-1.7-6-1.1-1.2-2.9-1.8-5.1-1.8-2.6 0-4.8.9-6.5 2.6-1.7 1.7-2.6 3.9-2.6 6.6v21.1c0 1.5-.8 2.3-2.3 2.3h-1.9c-.8 0-1.4-.2-1.8-.6-.4-.4-.5-1-.5-1.7v-23c0-2.5-.5-4.3-1.6-5.5-1.1-1.2-2.7-1.8-4.9-1.8-2.7 0-4.9.9-6.8 2.7-1.8 1.8-2.7 4.1-2.7 6.9v20.7c0 .8-.2 1.3-.5 1.7-.4.4-.9.6-1.8.6h-2c-1.5-.2-2.3-1-2.3-2.5zM1066.4-507c-3.2-1.3-5.7-3.4-7.6-6.2s-2.9-6.3-2.9-10.6c0-6.6 1.7-11.6 5.1-15 3.4-3.4 8.3-5.1 14.6-5.1 6.3 0 11 1.6 14.1 4.9 3.2 3.3 4.7 8.2 4.7 14.6 0 1.4-.7 2.1-2 2.1h-30c0 4 1.3 7.1 4 9.2 2.6 2.1 6.3 3.1 11 3.1 4.4 0 8.2-1 11.4-3 .3-.2.5-.2.7-.2.3 0 .5.2.7.5l1.4 2.5c.1.2.2.4.2.6 0 .4-.2.7-.6.9-2 1.3-4.2 2.2-6.5 2.8-2.3.6-5 .9-8 .9-3.7 0-7.1-.7-10.3-2zm21.7-20c0-3.8-1-6.8-3.1-8.9-2.1-2.1-5.2-3.2-9.3-3.2-4.2 0-7.5 1.1-9.7 3.3-2.3 2.2-3.4 5.1-3.4 8.8h25.5zM1106.7-508.5c-2.6-2.3-3.9-5.7-3.9-10.2v-21.8c0-1.5.8-2.3 2.3-2.3h2.4c.8 0 1.4.2 1.8.6.4.4.5 1 .5 1.7v21.7c0 2.9.8 5.1 2.3 6.4 1.6 1.3 3.9 2 6.9 2 3.3 0 6-.9 8.2-2.7 2.2-1.8 3.4-4.1 3.4-6.9v-20.7c0-1.5.8-2.3 2.4-2.3h2.3c.8 0 1.4.2 1.8.6.4.4.5 1 .5 1.7v32.4c0 .7-.1 1.2-.3 1.5-.2.3-.7.4-1.3.4h-2.5c-.6 0-.9-.1-1.1-.4-.2-.3-.3-.7-.4-1.2l-.2-3.7c-1.7 2.1-3.8 3.7-6.1 4.8-2.4 1.1-5.3 1.6-8.7 1.6-4.3.3-7.7-.9-10.3-3.2zM1164.6-509.2c-2.8-2.8-4.2-6.8-4.2-11.8v-9.5h-2.4c-1.6 0-2.7-.3-3.3-1-.6-.7-.9-1.8-.9-3.3v-3.5c0-1.5.3-2.6.9-3.3.6-.7 1.7-1 3.3-1h2.4v-.8c0-1.3.3-2.7 1-4 .7-1.3 1.6-3 2.7-5 .6-1 1.1-1.6 1.6-1.9.5-.3 1.4-.5 2.8-.5h5.5c1.7 0 2.9.3 3.6 1 .7.7 1 1.8 1 3.3v7.9h4.6c1.6 0 2.7.3 3.3 1 .6.7.9 1.8.9 3.3v3.5c0 1.5-.3 2.6-.9 3.3-.6.7-1.7 1-3.3 1h-4.6v9.2c0 1.2.2 2 .7 2.6.5.6 1.3.9 2.3.9.8 0 1.3-.1 1.7-.2.4-.2.9-.5 1.6-.9.5-.3.9-.5 1.3-.5.6 0 1.1.4 1.5 1.1l3.6 6.2c.5.8.7 1.5.7 2 0 .6-.3 1-.9 1.4-1.9 1.2-4 2.1-6.3 2.8-2.3.6-5.1 1-8.4 1-5-.1-9-1.5-11.8-4.3zM1195.8-508.5c-2.4-2.4-3.7-5.9-3.7-10.7v-19.1c0-1.5.3-2.6 1-3.3.7-.7 1.9-1.1 3.5-1.1h9.1c1.7 0 2.9.3 3.6 1 .7.7 1 1.8 1 3.3v18.3c0 1 .2 1.8.6 2.3.4.5 1 .7 1.9.7 1 0 1.6-.2 2-.7.4-.5.5-1.2.5-2.3v-18.3c0-1.5.3-2.6 1-3.3.7-.7 1.9-1.1 3.5-1.1h9.1c1.7 0 2.9.3 3.6 1 .7.7 1 1.8 1 3.3v29.8c0 1-.2 1.7-.6 2-.4.3-1.2.5-2.3.5h-9.6c-.7 0-1.2-.1-1.5-.2-.3-.1-.5-.4-.6-.9l-.5-1.9c-1.4 1.2-3.2 2.2-5.5 3-2.3.8-4.7 1.1-7.4 1.1-3.9.1-7.3-1.1-9.7-3.4zM1243.4-510c-3.9-3.3-5.9-8.3-5.9-14.8 0-5.8 1.6-10.5 4.9-14 3.3-3.5 7.9-5.2 14-5.2 1.2 0 2.5.1 3.9.4 1.3.3 2.4.6 3.2.9v-11.1c0-1.5.4-2.6 1.1-3.3.7-.7 1.9-1 3.6-1h8.7c1.7 0 2.9.4 3.5 1.1.7.7 1 1.8 1 3.3v43c-2.3 1.7-5.3 3-8.9 4.1-3.6 1-7.5 1.6-11.6 1.6-7.8 0-13.6-1.7-17.5-5zm20.4-7.4v-10.7c0-1.3-.3-2.3-.8-2.9-.5-.6-1.4-.9-2.7-.9-1.5 0-2.7.6-3.4 1.9-.8 1.3-1.1 3-1.1 5.1 0 2.7.5 4.7 1.5 5.9 1 1.2 2.5 1.8 4.4 1.8.8.1 1.6 0 2.1-.2zM1294.6-507.4c-3.4-1.6-6-3.9-7.8-6.8-1.8-2.9-2.7-6.3-2.7-10.3 0-4 .9-7.4 2.7-10.3 1.8-2.9 4.4-5.2 7.8-6.8 3.4-1.6 7.5-2.4 12.2-2.4 7.2 0 12.8 1.7 16.8 5.2s6 8.2 6 14.2c0 3.9-.9 7.3-2.7 10.3-1.8 2.9-4.4 5.2-7.8 6.8-3.4 1.6-7.5 2.4-12.3 2.4-4.7.1-8.8-.7-12.2-2.3zm16.8-17.1c0-2.3-.4-4-1.2-5-.8-1-1.9-1.5-3.4-1.5s-2.6.5-3.4 1.5c-.8 1-1.1 2.7-1.1 5 0 4.4 1.5 6.6 4.5 6.6 3.1.1 4.6-2.1 4.6-6.6z"/></g></g><g id="FORMULÁRIO" class="st0"><g class="st8"><image width="1318" height="198" xlink:href="9BBFDE.png" transform="translate(272 -335)" overflow="visible" opacity=".5"/><path class="st6" d="M1569-151H293c-5 0-9-4-9-9v-156c0-5 4-9 9-9h1276c5 0 9 4 9 9v156c0 5-4 9-9 9z"/></g><path fill="none" d="M310-209h316v27.3H310z"/><text transform="translate(310 -200.36)" class="st8"><tspan x="0" y="0" fill="#757575" font-family="Cairo-Regular" font-size="12">*Válido para compras acima de R$ 150 até 11/08/2018. </tspan><tspan x="0" y="14.4" fill="#757575" font-family="Cairo-Regular" font-size="12">Desconto não cumulativo.</tspan></text><g class="st8"><path fill="none" d="M372-288h306v46H372z"/><text transform="translate(372 -273.04)"><tspan x="0" y="0" class="st9" font-family="Mitr-Medium" font-size="22">Ganhe R$ 15 de desconto</tspan><tspan x="280.5" y="0" class="st9" font-family="Mitr-Light" font-size="22"> </tspan><tspan x="0" y="26" class="st9" font-family="Mitr-Light" font-size="22">no presente do papai.</tspan></text><path class="st9" d="M311-263.8h1.9v17.7c0 1 .7 1.7 1.7 1.7h34.1c1 0 1.7-.7 1.7-1.7v-17.7h1.9c1 0 1.7-.7 1.7-1.7v-12.3c0-1-.7-1.8-1.7-1.8h-8.4c3.9-2.1 5.9-4 6.2-6.2.2-1.3-.2-3.3-3.1-5-3.1-1.8-5.6-1.5-7.2-.8-2.6 1.1-4.9 3.7-6.8 7.8-.3.6-.5 1.2-.8 1.8-.2-.6-.5-1.2-.8-1.8-1.9-4.1-4.2-6.7-6.8-7.8-1.6-.7-4.1-1-7.2.8-2.9 1.8-3.3 3.7-3.1 5.1.3 2.2 2.3 4.1 6.2 6.2H311c-1 0-1.7.8-1.7 1.8v12.3c0 1 .7 1.6 1.7 1.6zm5.5 0h13.4v15.8h-13.4v-15.8zm30.4 15.8h-13.4v-15.8h13.4v15.8zm3.5-19.3h-17v-8.6h17v8.6zm-14.2-15c1.5-3.2 3.2-5.3 5-6 .4-.2.9-.3 1.4-.3.8 0 1.7.3 2.6.8.9.6 1.5 1.2 1.5 1.5-.2 1.6-5.4 4.5-11.4 6.3.1-.6.5-1.4.9-2.3zm-18.5-3.9c-.1-.4.5-1 1.5-1.5.9-.6 1.8-.8 2.6-.8.5 0 .9.1 1.4.3 2.8 1.1 4.9 5.3 6 8.4-6.1-1.9-11.3-4.8-11.5-6.4zm-4.8 10.2h17v8.6h-17v-8.6z"/></g><g id="Nome" class="st8"><path class="st10" d="M1033-244.5H743c-2.8 0-5-2.2-5-5v-30c0-2.8 2.2-5 5-5h290c2.8 0 5 2.2 5 5v30c0 2.8-2.2 5-5 5z"/><path fill="none" d="M753.5-270.5h232v12h-232z"/><text transform="translate(753.5 -259.73)" fill="#212121" font-family="Cairo-Regular" font-size="15">Digite seu nome</text></g><g id="Nome_1_" class="st8"><path class="st10" d="M1355.5-244.5h-290c-2.8 0-5-2.2-5-5v-30c0-2.8 2.2-5 5-5h290c2.8 0 5 2.2 5 5v30c0 2.8-2.2 5-5 5z"/><path fill="none" d="M1076-270.5h232v12h-232z"/><text transform="translate(1076 -259.73)" fill="#212121" font-family="Cairo-Regular" font-size="15">E-mail</text></g><path fill="none" d="M743-209.5h148v12H743z"/><text transform="translate(743 -198.73)" fill="#212121" font-family="Cairo-Regular" font-size="15">Selecione o seu gênero:</text><g id="Masc." class="st8"><path fill="none" d="M1040-207.5h67v12h-67z"/><text transform="translate(1040 -196.73)" fill="#212121" font-family="Cairo-Regular" font-size="15">Masculino</text><path class="st10" d="M1024.3-193.5c-4.5 0-8.2-3.7-8.2-8.2v-.7c0-4.5 3.7-8.2 8.2-8.2 4.5 0 8.2 3.7 8.2 8.2v.7c-.1 4.5-3.7 8.2-8.2 8.2z"/></g><g id="fem." class="st8"><path fill="none" d="M934-207.5h59v12h-59z"/><text transform="translate(934 -196.73)" fill="#212121" font-family="Cairo-Regular" font-size="15">Feminino</text><path class="st10" d="M918.3-193.5c-4.5 0-8.2-3.7-8.2-8.2v-.7c0-4.5 3.7-8.2 8.2-8.2 4.5 0 8.2 3.7 8.2 8.2v.7c-.1 4.5-3.7 8.2-8.2 8.2z"/></g><g id="Cadastrar" class="st8"><path class="st9" d="M1546-244h-159.5c-2.8 0-5-2.2-5-5v-30c0-2.8 2.2-5 5-5H1546c2.8 0 5 2.2 5 5v30c0 2.8-2.2 5-5 5z"/><path fill="none" d="M1381-272h170v17h-170z"/><text transform="translate(1411.562 -257.04)" class="st6" font-family="Mitr-Regular" font-size="22">Cadastrar</text></g></g><g id="Mensagem_Sucesso"><image width="1318" height="198" xlink:href="9BBFDF.png" transform="translate(272 -335)" overflow="visible" opacity=".5"/><path class="st6" d="M1569-151H293c-5 0-9-4-9-9v-156c0-5 4-9 9-9h1276c5 0 9 4 9 9v156c0 5-4 9-9 9z"/><path fill="none" d="M775-239h428v46H775z"/><text transform="translate(835.474 -228.12)"><tspan x="0" y="0" fill="#757575" font-family="Mitr-Light" font-size="16">Para presentear o papai, use o cupom</tspan><tspan x="7" y="26" fill="#f68026" font-family="Mitr-Medium" font-size="16">“MEUTUDO”</tspan><tspan x="98" y="26" fill="#757575" font-family="Mitr-Regular" font-size="16"> </tspan><tspan x="104.3" y="26" fill="#757575" font-family="Mitr-Light" font-size="16">no Carrinho de Compras.</tspan></text><path fill="none" d="M775-279h428v19H775z"/><text transform="translate(775 -265.4)"><tspan x="0" y="0" fill="#757575" font-family="Mitr-Medium" font-size="20">Parabéns, cadastro efetuado com suces</tspan><tspan x="403.8" y="0" fill="#757575" font-family="Mitr-Medium" font-size="20">-</tspan></text><g><path class="st11" d="M735.4-233.1c1.7-2.6 2.6-5.4 2.6-8.5 0-3.6-1.3-6.7-4-9.3-2.6-2.6-5.8-4-9.4-4h-9.2c1.7-3.4 2.5-6.8 2.5-10 0-4.1-.6-7.3-1.8-9.7-1.2-2.4-3-4.2-5.3-5.3-2.3-1.1-4.9-1.7-7.9-1.7-1.8 0-3.3.6-4.7 1.9-1.5 1.5-2.6 3.3-3.2 5.6-.7 2.3-1.2 4.5-1.6 6.6-.4 2.1-1 3.6-1.8 4.5-1.7 1.8-3.6 4.1-5.6 6.7-3.5 4.5-5.9 7.2-7.1 8.1h-14.3c-1.8 0-3.4.7-4.7 2-1.3 1.3-2 2.9-2 4.7v33.3c0 1.8.7 3.4 2 4.7 1.3 1.3 2.9 2 4.7 2h15c.8 0 3.2.7 7.2 2.1 4.3 1.5 8 2.6 11.3 3.4 3.2.8 6.5 1.2 9.9 1.2H714.7c4.9 0 8.8-1.4 11.8-4.2 3-2.8 4.5-6.6 4.4-11.4 2.1-2.7 3.1-5.8 3.1-9.3 0-.8-.1-1.5-.2-2.2 1.3-2.3 2-4.8 2-7.5.1-1.4 0-2.6-.4-3.7zm-65.1 23.9c-.7.7-1.4 1-2.3 1-.9 0-1.7-.3-2.3-1-.7-.7-1-1.4-1-2.3 0-.9.3-1.7 1-2.3.7-.7 1.4-1 2.3-1 .9 0 1.7.3 2.3 1 .7.7 1 1.4 1 2.3 0 .8-.3 1.6-1 2.3zm59.9-28.2c-.7 1.6-1.7 2.4-2.8 2.4.5.6 1 1.4 1.3 2.5.3 1.1.5 2 .5 2.9 0 2.4-.9 4.5-2.8 6.2.6 1.1.9 2.3.9 3.6 0 1.3-.3 2.6-.9 3.8-.6 1.3-1.4 2.2-2.5 2.7.2 1 .3 2 .3 2.9 0 5.8-3.3 8.7-10 8.7H708c-4.5 0-10.5-1.3-17.8-3.8-.2-.1-.7-.3-1.5-.5-.8-.3-1.4-.5-1.8-.7-.4-.1-1-.3-1.8-.6s-1.5-.5-2-.6c-.5-.1-1.1-.2-1.7-.3-.6-.1-1.2-.2-1.6-.2H678v-33.3h1.7c.6 0 1.2-.2 1.8-.5.7-.3 1.4-.8 2.1-1.4.7-.6 1.4-1.2 2-1.8.6-.6 1.3-1.4 2.1-2.3.8-.9 1.4-1.7 1.8-2.2.4-.6 1-1.3 1.6-2.1.7-.9 1.1-1.4 1.2-1.6 1.9-2.4 3.2-3.9 4-4.7 1.4-1.5 2.5-3.4 3.1-5.7.6-2.3 1.2-4.5 1.6-6.5.4-2 1.1-3.5 2-4.4 3.3 0 5.6.8 6.7 2.4 1.1 1.6 1.7 4.1 1.7 7.6 0 2-.8 4.8-2.5 8.4-1.7 3.5-2.5 6.3-2.5 8.3h18.3c1.7 0 3.3.7 4.6 2 1.4 1.3 2 2.9 2 4.7 0 1.1-.3 2.5-1.1 4.1z"/></g></g><g id="Vestido_com_Devoção"><path fill="none" d="M248-75h1366v35H248z"/><text transform="translate(713.223 -47.8)" class="st9" font-family="Mitr-Regular" font-size="40">Vestido com Devoção</text><g id="_x31_.Produto"><defs><path id="SVGID_7_" d="M336 17h288v288H336z"/></defs><clipPath id="SVGID_8_"><use xlink:href="#SVGID_7_" overflow="visible"/></clipPath><g clip-path="url(#SVGID_8_)"><image width="600" height="600" xlink:href="9BBFD1.jpg" transform="matrix(.48 0 0 .48 336 17)" overflow="visible"/></g><path fill="none" d="M336 316h288v15H336z"/><text transform="translate(379.05 327.488)" fill="#616161" font-family="Cairo-Regular" font-size="16">CAMISETA SAGRADA FAMÍLIA</text><path fill="none" d="M336 370h288v15H336z"/><text transform="translate(397.465 381.488)"><tspan x="0" y="0" fill="#212121" font-family="Cairo-Regular" font-size="16">Por apenas: </tspan><tspan x="82.6" y="0" fill="#212121" font-family="Cairo-Bold" font-size="16">3x R$ 16,63</tspan></text><g id="Avaliação"><path class="st12" d="M502.7 339.5l-1.7 3.4-3.7.5c-.7.1-.9.9-.4 1.4l2.7 2.6-.6 3.7c-.1.7.6 1.2 1.2.9l3.3-1.7 3.3 1.7c.6.3 1.3-.2 1.2-.9l-.6-3.7 2.7-2.6c.5-.5.2-1.3-.4-1.4l-3.7-.5-1.7-3.4c-.5-.6-1.3-.7-1.6 0zM485.7 339.5l-1.7 3.4-3.7.5c-.7.1-.9.9-.4 1.4l2.7 2.6-.6 3.7c-.1.7.6 1.2 1.2.9l3.3-1.7 3.3 1.7c.6.3 1.3-.2 1.2-.9l-.6-3.7 2.7-2.6c.5-.5.2-1.3-.4-1.4l-3.7-.5-1.7-3.4c-.5-.6-1.3-.7-1.6 0z"/><path class="st13" d="M468.7 339.5l-1.7 3.4-3.7.5c-.7.1-.9.9-.4 1.4l2.7 2.6-.6 3.7c-.1.7.6 1.2 1.2.9l3.3-1.7 3.3 1.7c.6.3 1.3-.2 1.2-.9l-.6-3.7 2.7-2.6c.5-.5.2-1.3-.4-1.4l-3.7-.5-1.7-3.4c-.5-.6-1.3-.7-1.6 0zM451.7 339.5l-1.7 3.4-3.7.5c-.7.1-.9.9-.4 1.4l2.7 2.6-.6 3.7c-.1.7.6 1.2 1.2.9l3.3-1.7 3.3 1.7c.6.3 1.3-.2 1.2-.9l-.6-3.7 2.7-2.6c.5-.5.2-1.3-.4-1.4l-3.7-.5-1.7-3.4c-.5-.6-1.3-.7-1.6 0zM434.7 339.5l-1.7 3.4-3.7.5c-.7.1-.9.9-.4 1.4l2.7 2.6-.6 3.7c-.1.7.6 1.2 1.2.9l3.3-1.7 3.3 1.7c.6.3 1.3-.2 1.2-.9l-.6-3.7 2.7-2.6c.5-.5.2-1.3-.4-1.4l-3.7-.5-1.7-3.4c-.5-.6-1.3-.7-1.6 0z"/><path fill="none" d="M518.3 341H532v11h-13.7z"/><text transform="translate(518.333 349.616)" fill="#757575" font-family="Cairo-Regular" font-size="12">(2)</text></g><g id="Flag" class="st0"><image width="86" height="76" id="Produto_Novo_3_" xlink:href="../../../../../Downloads/image.png" transform="translate(538 3)" overflow="visible"/><g id="Desconto" class="st8"><g id="Flag_Desconto"><path class="st14" d="M387 111h-58V28h58l42 42z"/><path class="st15" d="M329 28v-4l8-7v11zM329 111v4l8 7v-11z"/></g><path fill="none" d="M337 43.7h50V95h-50z"/><text transform="translate(337 62.566)"><tspan x="0" y="0" class="st9" font-family="Cairo-Bold" font-size="27">30%</tspan><tspan x="0" y="32.4" class="st9" font-family="Cairo-Regular" font-size="27">OFF</tspan></text></g></g><g id="Hover"><path class="st16" d="M630.8 10.3v438H329.3v-438h301.5m.7-.8h-303V449h303V9.5z"/><g id="Comprar"><path class="st9" d="M328.5 404h303v47h-303z"/><path fill="none" d="M336 418h288v20H336z"/><text transform="translate(440.961 433.664)" class="st6" font-family="Cairo-SemiBold" font-size="22">comprar</text></g><g id="Info"><path class="st6" d="M336 331h288v73H336z"/><path fill="none" d="M332 350h288v15H332z"/><text transform="translate(393.465 361.488)"><tspan x="0" y="0" fill="#212121" font-family="Cairo-Regular" font-size="16">Por apenas: </tspan><tspan x="82.6" y="0" fill="#212121" font-family="Cairo-Bold" font-size="16">3x R$ 16,63</tspan></text><path fill="none" d="M332 374h288v15H332z"/><text transform="translate(411.241 385.488)" fill="#616161" font-family="Cairo-Regular" font-size="16">ou R$ 49,90 à vista</text></g></g></g><g id="_x32_.Produto"><defs><path id="SVGID_9_" d="M638 16h288v288H638z"/></defs><clipPath id="SVGID_10_"><use xlink:href="#SVGID_9_" overflow="visible"/></clipPath><g clip-path="url(#SVGID_10_)"><image width="600" height="600" xlink:href="1682B96F.jpg" transform="translate(633 12) scale(.4883)" overflow="visible"/></g><path fill="none" d="M638 315h288v15H638z"/><text transform="translate(656.13 326.488)" fill="#616161" font-family="Cairo-Regular" font-size="16">CAMISETA MEDALHA DE SÃO BENTO</text><path fill="none" d="M638 369h288v15H638z"/><text transform="translate(699.465 380.488)"><tspan x="0" y="0" fill="#212121" font-family="Cairo-Regular" font-size="16">Por apenas: </tspan><tspan x="82.6" y="0" fill="#212121" font-family="Cairo-Bold" font-size="16">3x R$ 16,63</tspan></text><g id="Avaliação_1_"><path class="st12" d="M804.7 338.5l-1.7 3.4-3.7.5c-.7.1-.9.9-.4 1.4l2.7 2.6-.6 3.7c-.1.7.6 1.2 1.2.9l3.3-1.7 3.3 1.7c.6.3 1.3-.2 1.2-.9l-.6-3.7 2.7-2.6c.5-.5.2-1.3-.4-1.4l-3.7-.5-1.7-3.4c-.5-.6-1.3-.7-1.6 0zM787.7 338.5l-1.7 3.4-3.7.5c-.7.1-.9.9-.4 1.4l2.7 2.6-.6 3.7c-.1.7.6 1.2 1.2.9l3.3-1.7 3.3 1.7c.6.3 1.3-.2 1.2-.9l-.6-3.7 2.7-2.6c.5-.5.2-1.3-.4-1.4l-3.7-.5-1.7-3.4c-.5-.6-1.3-.7-1.6 0z"/><path class="st13" d="M770.7 338.5l-1.7 3.4-3.7.5c-.7.1-.9.9-.4 1.4l2.7 2.6-.6 3.7c-.1.7.6 1.2 1.2.9l3.3-1.7 3.3 1.7c.6.3 1.3-.2 1.2-.9l-.6-3.7 2.7-2.6c.5-.5.2-1.3-.4-1.4l-3.7-.5-1.7-3.4c-.5-.6-1.3-.7-1.6 0zM753.7 338.5l-1.7 3.4-3.7.5c-.7.1-.9.9-.4 1.4l2.7 2.6-.6 3.7c-.1.7.6 1.2 1.2.9l3.3-1.7 3.3 1.7c.6.3 1.3-.2 1.2-.9l-.6-3.7 2.7-2.6c.5-.5.2-1.3-.4-1.4l-3.7-.5-1.7-3.4c-.5-.6-1.3-.7-1.6 0zM736.7 338.5l-1.7 3.4-3.7.5c-.7.1-.9.9-.4 1.4l2.7 2.6-.6 3.7c-.1.7.6 1.2 1.2.9l3.3-1.7 3.3 1.7c.6.3 1.3-.2 1.2-.9l-.6-3.7 2.7-2.6c.5-.5.2-1.3-.4-1.4l-3.7-.5-1.7-3.4c-.5-.6-1.3-.7-1.6 0z"/><path fill="none" d="M820.3 340H834v11h-13.7z"/><text transform="translate(820.333 348.616)" fill="#757575" font-family="Cairo-Regular" font-size="12">(2)</text></g><g id="Flag_1_" class="st0"><image width="86" height="76" id="Produto_Novo_2_" xlink:href="../../../../../Downloads/image.png" transform="translate(840 2)" overflow="visible"/><g id="Desconto_1_" class="st8"><g id="Flag_Desconto_1_"><path class="st14" d="M689 110h-58V27h58l42 42z"/><path class="st15" d="M631 27v-4l8-7v11zM631 110v4l8 7v-11z"/></g><path fill="none" d="M639 42.7h50V94h-50z"/><text transform="translate(639 61.566)"><tspan x="0" y="0" class="st9" font-family="Cairo-Bold" font-size="27">30%</tspan><tspan x="0" y="32.4" class="st9" font-family="Cairo-Regular" font-size="27">OFF</tspan></text></g></g></g><g id="_x33_.Produto"><defs><path id="SVGID_11_" d="M941 16h288v288H941z"/></defs><clipPath id="SVGID_12_"><use xlink:href="#SVGID_11_" overflow="visible"/></clipPath><g clip-path="url(#SVGID_12_)"><image width="1250" height="1250" xlink:href="1682B96B.jpg" transform="translate(939 12) scale(.2376)" overflow="visible"/></g><path fill="none" d="M941 315h288v15H941z"/><text transform="translate(1002.25 326.488)" fill="#616161" font-family="Cairo-Regular" font-size="16">CAMISETA OSTENSÓRIO</text><path fill="none" d="M941 369h288v15H941z"/><text transform="translate(1002.465 380.488)"><tspan x="0" y="0" fill="#212121" font-family="Cairo-Regular" font-size="16">Por apenas: </tspan><tspan x="82.6" y="0" fill="#212121" font-family="Cairo-Bold" font-size="16">3x R$ 16,63</tspan></text><g id="Avaliação_6_"><path class="st12" d="M1107.7 338.5l-1.7 3.4-3.7.5c-.7.1-.9.9-.4 1.4l2.7 2.6-.6 3.7c-.1.7.6 1.2 1.2.9l3.3-1.7 3.3 1.7c.6.3 1.3-.2 1.2-.9l-.6-3.7 2.7-2.6c.5-.5.2-1.3-.4-1.4l-3.7-.5-1.7-3.4c-.5-.6-1.3-.7-1.6 0zM1090.7 338.5l-1.7 3.4-3.7.5c-.7.1-.9.9-.4 1.4l2.7 2.6-.6 3.7c-.1.7.6 1.2 1.2.9l3.3-1.7 3.3 1.7c.6.3 1.3-.2 1.2-.9l-.6-3.7 2.7-2.6c.5-.5.2-1.3-.4-1.4l-3.7-.5-1.7-3.4c-.5-.6-1.3-.7-1.6 0z"/><path class="st13" d="M1073.7 338.5l-1.7 3.4-3.7.5c-.7.1-.9.9-.4 1.4l2.7 2.6-.6 3.7c-.1.7.6 1.2 1.2.9l3.3-1.7 3.3 1.7c.6.3 1.3-.2 1.2-.9l-.6-3.7 2.7-2.6c.5-.5.2-1.3-.4-1.4l-3.7-.5-1.7-3.4c-.5-.6-1.3-.7-1.6 0zM1056.7 338.5l-1.7 3.4-3.7.5c-.7.1-.9.9-.4 1.4l2.7 2.6-.6 3.7c-.1.7.6 1.2 1.2.9l3.3-1.7 3.3 1.7c.6.3 1.3-.2 1.2-.9l-.6-3.7 2.7-2.6c.5-.5.2-1.3-.4-1.4l-3.7-.5-1.7-3.4c-.5-.6-1.3-.7-1.6 0zM1039.7 338.5l-1.7 3.4-3.7.5c-.7.1-.9.9-.4 1.4l2.7 2.6-.6 3.7c-.1.7.6 1.2 1.2.9l3.3-1.7 3.3 1.7c.6.3 1.3-.2 1.2-.9l-.6-3.7 2.7-2.6c.5-.5.2-1.3-.4-1.4l-3.7-.5-1.7-3.4c-.5-.6-1.3-.7-1.6 0z"/><path fill="none" d="M1123.3 340h13.7v11h-13.7z"/><text transform="translate(1123.333 348.616)" fill="#757575" font-family="Cairo-Regular" font-size="12">(2)</text></g><g id="Flag_3_" class="st0"><image width="86" height="76" id="Produto_Novo_4_" xlink:href="../../../../../Downloads/image.png" transform="translate(1143 2)" overflow="visible"/><g id="Desconto_3_" class="st8"><g id="Flag_Desconto_3_"><path class="st14" d="M992 110h-58V27h58l42 42z"/><path class="st15" d="M934 27v-4l8-7v11zM934 110v4l8 7v-11z"/></g><path fill="none" d="M942 42.7h50V94h-50z"/><text transform="translate(942 61.566)"><tspan x="0" y="0" class="st9" font-family="Cairo-Bold" font-size="27">30%</tspan><tspan x="0" y="32.4" class="st9" font-family="Cairo-Regular" font-size="27">OFF</tspan></text></g></g></g><g id="_x34_.Produto"><defs><path id="SVGID_13_" d="M1243 16h288v288h-288z"/></defs><clipPath id="SVGID_14_"><use xlink:href="#SVGID_13_" overflow="visible"/></clipPath><g clip-path="url(#SVGID_14_)"><image width="600" height="600" xlink:href="1682B967.jpg" transform="matrix(.48 0 0 .48 1243 16)" overflow="visible"/></g><g clip-path="url(#SVGID_14_)"><image width="1250" height="1250" xlink:href="1682B965.jpg" transform="translate(1239 14) scale(.2352)" overflow="visible"/></g><path fill="none" d="M1243 315h288v15h-288z"/><text transform="translate(1266.45 326.488)" fill="#616161" font-family="Cairo-Regular" font-size="16">CAMISETA JESUS MISERICORDIOSO</text><path fill="none" d="M1243 369h288v15h-288z"/><text transform="translate(1304.465 380.488)"><tspan x="0" y="0" fill="#212121" font-family="Cairo-Regular" font-size="16">Por apenas: </tspan><tspan x="82.6" y="0" fill="#212121" font-family="Cairo-Bold" font-size="16">3x R$ 16,63</tspan></text><g id="Avaliação_2_"><path class="st12" d="M1409.7 338.5l-1.7 3.4-3.7.5c-.7.1-.9.9-.4 1.4l2.7 2.6-.6 3.7c-.1.7.6 1.2 1.2.9l3.3-1.7 3.3 1.7c.6.3 1.3-.2 1.2-.9l-.6-3.7 2.7-2.6c.5-.5.2-1.3-.4-1.4l-3.7-.5-1.7-3.4c-.5-.6-1.3-.7-1.6 0zM1392.7 338.5l-1.7 3.4-3.7.5c-.7.1-.9.9-.4 1.4l2.7 2.6-.6 3.7c-.1.7.6 1.2 1.2.9l3.3-1.7 3.3 1.7c.6.3 1.3-.2 1.2-.9l-.6-3.7 2.7-2.6c.5-.5.2-1.3-.4-1.4l-3.7-.5-1.7-3.4c-.5-.6-1.3-.7-1.6 0z"/><path class="st13" d="M1375.7 338.5l-1.7 3.4-3.7.5c-.7.1-.9.9-.4 1.4l2.7 2.6-.6 3.7c-.1.7.6 1.2 1.2.9l3.3-1.7 3.3 1.7c.6.3 1.3-.2 1.2-.9l-.6-3.7 2.7-2.6c.5-.5.2-1.3-.4-1.4l-3.7-.5-1.7-3.4c-.5-.6-1.3-.7-1.6 0zM1358.7 338.5l-1.7 3.4-3.7.5c-.7.1-.9.9-.4 1.4l2.7 2.6-.6 3.7c-.1.7.6 1.2 1.2.9l3.3-1.7 3.3 1.7c.6.3 1.3-.2 1.2-.9l-.6-3.7 2.7-2.6c.5-.5.2-1.3-.4-1.4l-3.7-.5-1.7-3.4c-.5-.6-1.3-.7-1.6 0zM1341.7 338.5l-1.7 3.4-3.7.5c-.7.1-.9.9-.4 1.4l2.7 2.6-.6 3.7c-.1.7.6 1.2 1.2.9l3.3-1.7 3.3 1.7c.6.3 1.3-.2 1.2-.9l-.6-3.7 2.7-2.6c.5-.5.2-1.3-.4-1.4l-3.7-.5-1.7-3.4c-.5-.6-1.3-.7-1.6 0z"/><path fill="none" d="M1425.3 340h13.7v11h-13.7z"/><text transform="translate(1425.333 348.616)" fill="#757575" font-family="Cairo-Regular" font-size="12">(2)</text></g><g id="Flag_2_" class="st0"><image width="86" height="76" id="Produto_Novo_5_" xlink:href="../../../../../Downloads/image.png" transform="translate(1445 2)" overflow="visible"/><g id="Desconto_2_" class="st8"><g id="Flag_Desconto_2_"><path class="st14" d="M1294 110h-58V27h58l42 42z"/><path class="st15" d="M1236 27v-4l8-7v11zM1236 110v4l8 7v-11z"/></g><path fill="none" d="M1244 42.7h50V94h-50z"/><text transform="translate(1244 61.566)"><tspan x="0" y="0" class="st9" font-family="Cairo-Bold" font-size="27">30%</tspan><tspan x="0" y="32.4" class="st9" font-family="Cairo-Regular" font-size="27">OFF</tspan></text></g></g></g><g id="arrow_e"><g id="XMLID_59_"><path id="XMLID_60_" class="st9" d="M286.2 165l27.9 27.6 2.4-2.3-26.4-26.5 26.5-26.5-2.5-2.3-27.9 27.7z"/></g></g><g id="arrow_d_1_"><g id="XMLID_55_"><path id="XMLID_56_" class="st9" d="M1575.4 162.7l-27.9-27.7-2.4 2.3 26.4 26.5-26.5 26.5 2.5 2.3 27.9-27.6z"/></g></g><g id="Slideshow"><circle class="st9" cx="876.9" cy="471.5" r="8.5"/><circle class="st17" cx="905.6" cy="471.5" r="8.5"/><circle class="st17" cx="932.4" cy="471.5" r="8.5"/><circle class="st17" cx="959.2" cy="471.5" r="8.5"/><circle class="st17" cx="986.1" cy="471.5" r="8.5"/></g><path class="st9" d="M1160-57l12-.1h12c8 0 16 .1 24 0l24-.1c8 0 16 .1 24 .1-8 0-16 .1-24 .1l-24-.1c-8-.1-16 0-24 0h-12l-12 .1z"/><path transform="rotate(-45.001 1175.006 -56.987)" class="st6" d="M1164.5-67.5h21v21h-21z"/><path class="st9" d="M1175-71.8l7.5 7.2 7.6 7.4.3.3-.3.3c-2.4 2.5-4.9 5-7.4 7.5l-7.4 7.5-.4.4-.4-.4-7.4-7.5c-2.5-2.5-4.9-5-7.4-7.5l-.3-.3.3-.3 7.6-7.4 7.7-7.2zm0 0l-7.3 7.7-7.2 7.5v-.5c2.5 2.4 5 4.9 7.5 7.4l7.5 7.4h-.7l7.5-7.4c2.5-2.5 5-4.9 7.5-7.4v.5l-7.2-7.5-7.6-7.7z"/><g><path transform="rotate(-45.001 1204.006 -56.986)" class="st6" d="M1196.9-64.1h14.1V-50h-14.1z"/><path class="st9" d="M1204-67l5.1 4.8 5.2 5 .3.3-.3.3c-1.6 1.7-3.3 3.4-4.9 5.1l-5 5-.4.4-.4-.4-5-5c-1.6-1.7-3.3-3.3-5-5l-.3-.3.3-.3 5.2-5 5.2-4.9zm0 0l-4.9 5.2-4.8 5v-.5c1.7 1.6 3.4 3.3 5 5l5 5h-.7l5-5c1.7-1.7 3.3-3.3 5.1-4.9v.5l-4.8-5-4.9-5.3z"/></g><g><path class="st9" d="M704-57l-12 .1h-12c-8 0-16-.1-24 0l-24 .1c-8 0-16-.1-24-.1 8 0 16-.1 24-.1l24 .1c8 .1 16 0 24 0h12l12-.1z"/><path transform="rotate(-45.001 689.004 -56.992)" class="st6" d="M678.5-67.5h21v21h-21z"/><path class="st9" d="M689-42.2l-7.5-7.2-7.6-7.4-.3-.3.3-.3c2.4-2.5 4.9-5 7.4-7.5l7.4-7.5.4-.4.4.4 7.4 7.5c2.5 2.5 4.9 5 7.4 7.5l.3.3-.3.3-7.6 7.4-7.7 7.2zm0 0l7.3-7.7 7.2-7.5v.5c-2.5-2.4-5-4.9-7.5-7.4l-7.5-7.4h.7l-7.5 7.4c-2.5 2.5-5 4.9-7.5 7.4v-.5l7.2 7.5 7.6 7.7z"/><g><path transform="rotate(-45.001 660.004 -56.993)" class="st6" d="M652.9-64.1H667V-50h-14.1z"/><path class="st9" d="M660-47l-5.1-4.8-5.2-5-.3-.3.3-.3c1.6-1.7 3.3-3.4 4.9-5.1l5-5 .4-.4.4.4 5 5c1.6 1.7 3.3 3.3 5 5l.3.3-.3.3-5.2 5L660-47zm0 0l4.9-5.2 4.8-5v.5c-1.7-1.6-3.4-3.3-5-5l-5-5h.7l-5 5c-1.7 1.7-3.3 3.3-5.1 4.9v-.5l4.8 5L660-47z"/></g></g></g><g id="Mensagens_de_Fé"><path fill="none" d="M249 543h1366v35H249z"/><text transform="translate(759.942 570.2)" class="st9" font-family="Mitr-Regular" font-size="40">Mensagens de Fé</text><g id="_x31_.Produto_1_"><defs><path id="SVGID_15_" d="M337 635h288v288H337z"/></defs><clipPath id="SVGID_16_"><use xlink:href="#SVGID_15_" overflow="visible"/></clipPath><g clip-path="url(#SVGID_16_)"><image width="1250" height="1250" xlink:href="1682B97D.jpg" transform="translate(330 634) scale(.2368)" overflow="visible"/></g><path fill="none" d="M337 934h288v15H337z"/><text transform="translate(341.626 945.488)" fill="#616161" font-family="Cairo-Regular" font-size="16">CAMISETA NOSSA SENHORA APARECIDA</text><path fill="none" d="M337 988h288v15H337z"/><text transform="translate(398.465 999.488)"><tspan x="0" y="0" fill="#212121" font-family="Cairo-Regular" font-size="16">Por apenas: </tspan><tspan x="82.6" y="0" fill="#212121" font-family="Cairo-Bold" font-size="16">3x R$ 16,63</tspan></text><g id="Avaliação_14_"><path class="st12" d="M503.7 957.5l-1.7 3.4-3.7.5c-.7.1-.9.9-.4 1.4l2.7 2.6-.6 3.7c-.1.7.6 1.2 1.2.9l3.3-1.7 3.3 1.7c.6.3 1.3-.2 1.2-.9l-.6-3.7 2.7-2.6c.5-.5.2-1.3-.4-1.4l-3.7-.5-1.7-3.4c-.5-.6-1.3-.7-1.6 0zM486.7 957.5l-1.7 3.4-3.7.5c-.7.1-.9.9-.4 1.4l2.7 2.6-.6 3.7c-.1.7.6 1.2 1.2.9l3.3-1.7 3.3 1.7c.6.3 1.3-.2 1.2-.9l-.6-3.7 2.7-2.6c.5-.5.2-1.3-.4-1.4l-3.7-.5-1.7-3.4c-.5-.6-1.3-.7-1.6 0z"/><path class="st13" d="M469.7 957.5l-1.7 3.4-3.7.5c-.7.1-.9.9-.4 1.4l2.7 2.6-.6 3.7c-.1.7.6 1.2 1.2.9l3.3-1.7 3.3 1.7c.6.3 1.3-.2 1.2-.9l-.6-3.7 2.7-2.6c.5-.5.2-1.3-.4-1.4l-3.7-.5-1.7-3.4c-.5-.6-1.3-.7-1.6 0zM452.7 957.5l-1.7 3.4-3.7.5c-.7.1-.9.9-.4 1.4l2.7 2.6-.6 3.7c-.1.7.6 1.2 1.2.9l3.3-1.7 3.3 1.7c.6.3 1.3-.2 1.2-.9l-.6-3.7 2.7-2.6c.5-.5.2-1.3-.4-1.4l-3.7-.5-1.7-3.4c-.5-.6-1.3-.7-1.6 0zM435.7 957.5l-1.7 3.4-3.7.5c-.7.1-.9.9-.4 1.4l2.7 2.6-.6 3.7c-.1.7.6 1.2 1.2.9l3.3-1.7 3.3 1.7c.6.3 1.3-.2 1.2-.9l-.6-3.7 2.7-2.6c.5-.5.2-1.3-.4-1.4l-3.7-.5-1.7-3.4c-.5-.6-1.3-.7-1.6 0z"/><path fill="none" d="M519.3 959H533v11h-13.7z"/><text transform="translate(519.333 967.616)" fill="#757575" font-family="Cairo-Regular" font-size="12">(2)</text></g><g id="Flag_4_" class="st0"><image width="86" height="76" id="Produto_Novo_7_" xlink:href="../../../../../Downloads/image.png" transform="translate(539 621)" overflow="visible"/><g id="Desconto_4_" class="st8"><g id="Flag_Desconto_4_"><path class="st14" d="M388 729h-58v-83h58l42 42z"/><path class="st15" d="M330 646v-4l8-7v11zM330 729v4l8 7v-11z"/></g><path fill="none" d="M338 661.7h50V713h-50z"/><text transform="translate(338 680.566)"><tspan x="0" y="0" class="st9" font-family="Cairo-Bold" font-size="27">30%</tspan><tspan x="0" y="32.4" class="st9" font-family="Cairo-Regular" font-size="27">OFF</tspan></text></g></g><g id="Hover_1_" class="st0"><path class="st8 st16" d="M631.8 628.3v438H330.3v-438h301.5m.7-.8h-303V1067h303V627.5z"/><g id="Comprar_1_" class="st8"><path class="st9" d="M329.5 1022h303v47h-303z"/><path fill="none" d="M337 1036h288v20H337z"/><text transform="translate(441.961 1051.664)" class="st6" font-family="Cairo-SemiBold" font-size="22">comprar</text></g><g id="Info_1_" class="st8"><path class="st6" d="M337 949h288v73H337z"/><path fill="none" d="M333 968h288v15H333z"/><text transform="translate(394.465 979.488)"><tspan x="0" y="0" fill="#212121" font-family="Cairo-Regular" font-size="16">Por apenas: </tspan><tspan x="82.6" y="0" fill="#212121" font-family="Cairo-Bold" font-size="16">3x R$ 16,63</tspan></text><path fill="none" d="M333 992h288v15H333z"/><text transform="translate(412.241 1003.488)" fill="#616161" font-family="Cairo-Regular" font-size="16">ou R$ 49,90 à vista</text></g></g></g><g id="_x32_.Produto_1_"><defs><path id="SVGID_17_" d="M639 634h288v288H639z"/></defs><clipPath id="SVGID_18_"><use xlink:href="#SVGID_17_" overflow="visible"/></clipPath><g clip-path="url(#SVGID_18_)"><image width="600" height="600" xlink:href="1682B97A.jpg" transform="matrix(.48 0 0 .48 639 634)" overflow="visible"/></g><g clip-path="url(#SVGID_18_)"><image width="1250" height="1250" xlink:href="1682B99E.jpg" transform="matrix(.24 0 0 .24 630 629)" overflow="visible"/></g><path fill="none" d="M639 933h288v15H639z"/><text transform="translate(650.579 944.488)" fill="#616161" font-family="Cairo-Regular" font-size="16">CAMISETA DOCE ESPÍRITO SANTO DE...</text><path fill="none" d="M639 987h288v15H639z"/><text transform="translate(700.465 998.488)"><tspan x="0" y="0" fill="#212121" font-family="Cairo-Regular" font-size="16">Por apenas: </tspan><tspan x="82.6" y="0" fill="#212121" font-family="Cairo-Bold" font-size="16">3x R$ 16,63</tspan></text><g id="Avaliação_12_"><path class="st12" d="M805.7 956.5l-1.7 3.4-3.7.5c-.7.1-.9.9-.4 1.4l2.7 2.6-.6 3.7c-.1.7.6 1.2 1.2.9l3.3-1.7 3.3 1.7c.6.3 1.3-.2 1.2-.9l-.6-3.7 2.7-2.6c.5-.5.2-1.3-.4-1.4l-3.7-.5-1.7-3.4c-.5-.6-1.3-.7-1.6 0zM788.7 956.5l-1.7 3.4-3.7.5c-.7.1-.9.9-.4 1.4l2.7 2.6-.6 3.7c-.1.7.6 1.2 1.2.9l3.3-1.7 3.3 1.7c.6.3 1.3-.2 1.2-.9l-.6-3.7 2.7-2.6c.5-.5.2-1.3-.4-1.4l-3.7-.5-1.7-3.4c-.5-.6-1.3-.7-1.6 0z"/><path class="st13" d="M771.7 956.5l-1.7 3.4-3.7.5c-.7.1-.9.9-.4 1.4l2.7 2.6-.6 3.7c-.1.7.6 1.2 1.2.9l3.3-1.7 3.3 1.7c.6.3 1.3-.2 1.2-.9l-.6-3.7 2.7-2.6c.5-.5.2-1.3-.4-1.4l-3.7-.5-1.7-3.4c-.5-.6-1.3-.7-1.6 0zM754.7 956.5l-1.7 3.4-3.7.5c-.7.1-.9.9-.4 1.4l2.7 2.6-.6 3.7c-.1.7.6 1.2 1.2.9l3.3-1.7 3.3 1.7c.6.3 1.3-.2 1.2-.9l-.6-3.7 2.7-2.6c.5-.5.2-1.3-.4-1.4l-3.7-.5-1.7-3.4c-.5-.6-1.3-.7-1.6 0zM737.7 956.5l-1.7 3.4-3.7.5c-.7.1-.9.9-.4 1.4l2.7 2.6-.6 3.7c-.1.7.6 1.2 1.2.9l3.3-1.7 3.3 1.7c.6.3 1.3-.2 1.2-.9l-.6-3.7 2.7-2.6c.5-.5.2-1.3-.4-1.4l-3.7-.5-1.7-3.4c-.5-.6-1.3-.7-1.6 0z"/><path fill="none" d="M821.3 958H835v11h-13.7z"/><text transform="translate(821.333 966.616)" fill="#757575" font-family="Cairo-Regular" font-size="12">(2)</text></g></g><g id="_x33_.Produto_1_"><defs><path id="SVGID_19_" d="M942 634h288v288H942z"/></defs><clipPath id="SVGID_20_"><use xlink:href="#SVGID_19_" overflow="visible"/></clipPath><g clip-path="url(#SVGID_20_)"><image width="1250" height="1250" xlink:href="1682B99D.jpg" transform="translate(936 630) scale(.2368)" overflow="visible"/></g><path fill="none" d="M942 933h288v15H942z"/><text transform="translate(956.37 944.488)" fill="#616161" font-family="Cairo-Regular" font-size="16">CAMISETA ELE NÃO DESISTE DE VOCÊ</text><path fill="none" d="M942 1010h288v15H942z"/><text transform="translate(1003.465 1021.488)"><tspan x="0" y="0" fill="#212121" font-family="Cairo-Regular" font-size="16">Por apenas: </tspan><tspan x="82.6" y="0" fill="#212121" font-family="Cairo-Bold" font-size="16">3x R$ 16,63</tspan></text><g id="Avaliação_10_"><path class="st12" d="M1108.7 956.5l-1.7 3.4-3.7.5c-.7.1-.9.9-.4 1.4l2.7 2.6-.6 3.7c-.1.7.6 1.2 1.2.9l3.3-1.7 3.3 1.7c.6.3 1.3-.2 1.2-.9l-.6-3.7 2.7-2.6c.5-.5.2-1.3-.4-1.4l-3.7-.5-1.7-3.4c-.5-.6-1.3-.7-1.6 0zM1091.7 956.5l-1.7 3.4-3.7.5c-.7.1-.9.9-.4 1.4l2.7 2.6-.6 3.7c-.1.7.6 1.2 1.2.9l3.3-1.7 3.3 1.7c.6.3 1.3-.2 1.2-.9l-.6-3.7 2.7-2.6c.5-.5.2-1.3-.4-1.4l-3.7-.5-1.7-3.4c-.5-.6-1.3-.7-1.6 0z"/><path class="st13" d="M1074.7 956.5l-1.7 3.4-3.7.5c-.7.1-.9.9-.4 1.4l2.7 2.6-.6 3.7c-.1.7.6 1.2 1.2.9l3.3-1.7 3.3 1.7c.6.3 1.3-.2 1.2-.9l-.6-3.7 2.7-2.6c.5-.5.2-1.3-.4-1.4l-3.7-.5-1.7-3.4c-.5-.6-1.3-.7-1.6 0zM1057.7 956.5l-1.7 3.4-3.7.5c-.7.1-.9.9-.4 1.4l2.7 2.6-.6 3.7c-.1.7.6 1.2 1.2.9l3.3-1.7 3.3 1.7c.6.3 1.3-.2 1.2-.9l-.6-3.7 2.7-2.6c.5-.5.2-1.3-.4-1.4l-3.7-.5-1.7-3.4c-.5-.6-1.3-.7-1.6 0zM1040.7 956.5l-1.7 3.4-3.7.5c-.7.1-.9.9-.4 1.4l2.7 2.6-.6 3.7c-.1.7.6 1.2 1.2.9l3.3-1.7 3.3 1.7c.6.3 1.3-.2 1.2-.9l-.6-3.7 2.7-2.6c.5-.5.2-1.3-.4-1.4l-3.7-.5-1.7-3.4c-.5-.6-1.3-.7-1.6 0z"/><path fill="none" d="M1124.3 958h13.7v11h-13.7z"/><text transform="translate(1124.333 966.616)" fill="#757575" font-family="Cairo-Regular" font-size="12">(2)</text></g><g id="Desconto_5_"><g id="Flag_Desconto_5_"><path class="st14" d="M992 728h-58v-83h58l42 42z"/><path class="st15" d="M934 645v-4l8-7v11zM934 728v4l8 7v-11z"/></g><path fill="none" d="M942 660.7h50V712h-50z"/><text transform="translate(942 679.566)"><tspan x="0" y="0" class="st9" font-family="Cairo-Bold" font-size="27">30%</tspan><tspan x="0" y="32.4" class="st9" font-family="Cairo-Regular" font-size="27">OFF</tspan></text></g><g id="Preço_anterior"><path fill="none" d="M942 987h288v15H942z"/><text transform="translate(1047.878 997.052)" class="st13" font-family="Cairo-Regular" font-size="14">De: R$ 59,00</text><path class="st18" d="M1041 993h90"/></g></g><g id="_x34_.Produto_1_"><defs><path id="SVGID_21_" d="M1244 634h288v288h-288z"/></defs><clipPath id="SVGID_22_"><use xlink:href="#SVGID_21_" overflow="visible"/></clipPath><g clip-path="url(#SVGID_22_)"><image width="1250" height="1250" xlink:href="1682B99A.jpg" transform="matrix(.24 0 0 .24 1239 633)" overflow="visible"/></g><path fill="none" d="M1244 933h288v15h-288z"/><text transform="translate(1267.45 944.488)" fill="#616161" font-family="Cairo-Regular" font-size="16">CAMISETA JESUS MISERICORDIOSO</text><path fill="none" d="M1244 987h288v15h-288z"/><text transform="translate(1305.465 998.488)"><tspan x="0" y="0" fill="#212121" font-family="Cairo-Regular" font-size="16">Por apenas: </tspan><tspan x="82.6" y="0" fill="#212121" font-family="Cairo-Bold" font-size="16">3x R$ 16,63</tspan></text><g id="Avaliação_3_"><path class="st12" d="M1410.7 956.5l-1.7 3.4-3.7.5c-.7.1-.9.9-.4 1.4l2.7 2.6-.6 3.7c-.1.7.6 1.2 1.2.9l3.3-1.7 3.3 1.7c.6.3 1.3-.2 1.2-.9l-.6-3.7 2.7-2.6c.5-.5.2-1.3-.4-1.4l-3.7-.5-1.7-3.4c-.5-.6-1.3-.7-1.6 0zM1393.7 956.5l-1.7 3.4-3.7.5c-.7.1-.9.9-.4 1.4l2.7 2.6-.6 3.7c-.1.7.6 1.2 1.2.9l3.3-1.7 3.3 1.7c.6.3 1.3-.2 1.2-.9l-.6-3.7 2.7-2.6c.5-.5.2-1.3-.4-1.4l-3.7-.5-1.7-3.4c-.5-.6-1.3-.7-1.6 0z"/><path class="st13" d="M1376.7 956.5l-1.7 3.4-3.7.5c-.7.1-.9.9-.4 1.4l2.7 2.6-.6 3.7c-.1.7.6 1.2 1.2.9l3.3-1.7 3.3 1.7c.6.3 1.3-.2 1.2-.9l-.6-3.7 2.7-2.6c.5-.5.2-1.3-.4-1.4l-3.7-.5-1.7-3.4c-.5-.6-1.3-.7-1.6 0zM1359.7 956.5l-1.7 3.4-3.7.5c-.7.1-.9.9-.4 1.4l2.7 2.6-.6 3.7c-.1.7.6 1.2 1.2.9l3.3-1.7 3.3 1.7c.6.3 1.3-.2 1.2-.9l-.6-3.7 2.7-2.6c.5-.5.2-1.3-.4-1.4l-3.7-.5-1.7-3.4c-.5-.6-1.3-.7-1.6 0zM1342.7 956.5l-1.7 3.4-3.7.5c-.7.1-.9.9-.4 1.4l2.7 2.6-.6 3.7c-.1.7.6 1.2 1.2.9l3.3-1.7 3.3 1.7c.6.3 1.3-.2 1.2-.9l-.6-3.7 2.7-2.6c.5-.5.2-1.3-.4-1.4l-3.7-.5-1.7-3.4c-.5-.6-1.3-.7-1.6 0z"/><path fill="none" d="M1426.3 958h13.7v11h-13.7z"/><text transform="translate(1426.333 966.616)" fill="#757575" font-family="Cairo-Regular" font-size="12">(2)</text></g><image width="86" height="76" id="Produto_Novo_6_" xlink:href="../../../../../Downloads/image.png" transform="translate(1446 620)" overflow="visible"/></g><g id="arrow_e_1_"><g id="XMLID_27_"><path id="XMLID_28_" class="st9" d="M287.2 783l27.9 27.6 2.4-2.3-26.4-26.5 26.5-26.5-2.5-2.3-27.9 27.7z"/></g></g><g id="arrow_d_3_"><g id="XMLID_29_"><path id="XMLID_30_" class="st9" d="M1576.4 780.7l-27.9-27.7-2.4 2.3 26.4 26.5-26.5 26.5 2.5 2.3 27.9-27.6z"/></g></g><g id="Slideshow_1_"><circle class="st9" cx="877.9" cy="1080.5" r="8.5"/><circle class="st17" cx="906.6" cy="1080.5" r="8.5"/><circle class="st17" cx="933.4" cy="1080.5" r="8.5"/><circle class="st17" cx="960.2" cy="1080.5" r="8.5"/><circle class="st17" cx="987.1" cy="1080.5" r="8.5"/></g><path class="st9" d="M1119 561l12-.1h12c8 0 16 .1 24 0l24-.1c8 0 16 .1 24 .1-8 0-16 .1-24 .1l-24-.1c-8-.1-16 0-24 0h-12l-12 .1z"/><path transform="rotate(-45.001 1133.999 561.016)" class="st6" d="M1123.5 550.5h21v21h-21z"/><path class="st9" d="M1134 546.2l7.5 7.2 7.6 7.4.3.3-.3.3c-2.4 2.5-4.9 5-7.4 7.5l-7.4 7.5-.4.4-.4-.4-7.4-7.5c-2.5-2.5-4.9-5-7.4-7.5l-.3-.3.3-.3 7.6-7.4 7.7-7.2zm0 0l-7.3 7.7-7.2 7.5v-.5c2.5 2.4 5 4.9 7.5 7.4l7.5 7.4h-.7l7.5-7.4c2.5-2.5 5-4.9 7.5-7.4v.5l-7.2-7.5-7.6-7.7z"/><g><path transform="rotate(-45.001 1163 561.016)" class="st6" d="M1155.9 553.9h14.1V568h-14.1z"/><path class="st9" d="M1163 551l5.1 4.8 5.2 5 .3.3-.3.3c-1.6 1.7-3.3 3.4-4.9 5.1l-5 5-.4.4-.4-.4-5-5c-1.6-1.7-3.3-3.3-5-5l-.3-.3.3-.3 5.2-5 5.2-4.9zm0 0l-4.9 5.2-4.8 5v-.5c1.7 1.6 3.4 3.3 5 5l5 5h-.7l5-5c1.7-1.7 3.3-3.3 5.1-4.9v.5l-4.8-5-4.9-5.3z"/></g><g><path class="st9" d="M744 560l-12 .1h-12c-8 0-16-.1-24 0l-24 .1c-8 0-16-.1-24-.1 8 0 16-.1 24-.1l24 .1c8 .1 16 0 24 0h12l12-.1z"/><path transform="rotate(-45.001 728.997 560.011)" class="st6" d="M718.5 549.5h21v21h-21z"/><path class="st9" d="M729 574.8l-7.5-7.2-7.6-7.4-.3-.3.3-.3c2.4-2.5 4.9-5 7.4-7.5l7.4-7.5.4-.4.4.4 7.4 7.5c2.5 2.5 4.9 5 7.4 7.5l.3.3-.3.3-7.6 7.4-7.7 7.2zm0 0l7.3-7.7 7.2-7.5v.5c-2.5-2.4-5-4.9-7.5-7.4l-7.5-7.4h.7l-7.5 7.4c-2.5 2.5-5 4.9-7.5 7.4v-.5l7.2 7.5 7.6 7.7z"/><g><path transform="rotate(-45.001 699.997 560.01)" class="st6" d="M692.9 552.9H707V567h-14.1z"/><path class="st9" d="M700 570l-5.1-4.8-5.2-5-.3-.3.3-.3c1.6-1.7 3.3-3.4 4.9-5.1l5-5 .4-.4.4.4 5 5c1.6 1.7 3.3 3.3 5 5l.3.3-.3.3-5.2 5-5.2 4.9zm0 0l4.9-5.2 4.8-5v.5c-1.7-1.6-3.4-3.3-5-5l-5-5h.7l-5 5c-1.7 1.7-3.3 3.3-5.1 4.9v-.5l4.8 5 4.9 5.3z"/></g></g></g><g id="Música_e_Louvor"><path fill="none" d="M248 1153h1366v35H248z"/><text transform="translate(768.682 1180.2)" class="st9" font-family="Mitr-Regular" font-size="40">Música e Louvor</text><g id="_x31_.Produto_2_"><defs><path id="SVGID_23_" d="M336 1245h288v288H336z"/></defs><clipPath id="SVGID_24_"><use xlink:href="#SVGID_23_" overflow="visible"/></clipPath><g clip-path="url(#SVGID_24_)"><image width="1250" height="1250" xlink:href="1682B996.jpg" transform="translate(333 1244) scale(.2344)" overflow="visible"/></g><path fill="none" d="M336 1544h288v15H336z"/><text transform="translate(376.01 1555.488)" fill="#616161" font-family="Cairo-Regular" font-size="16">CAMISETA LOUVE AO SENHOR</text><path fill="none" d="M336 1598h288v15H336z"/><text transform="translate(397.465 1609.488)"><tspan x="0" y="0" fill="#212121" font-family="Cairo-Regular" font-size="16">Por apenas: </tspan><tspan x="82.6" y="0" fill="#212121" font-family="Cairo-Bold" font-size="16">3x R$ 16,63</tspan></text><g id="Avaliação_22_"><path class="st12" d="M502.7 1567.5l-1.7 3.4-3.7.5c-.7.1-.9.9-.4 1.4l2.7 2.6-.6 3.7c-.1.7.6 1.2 1.2.9l3.3-1.7 3.3 1.7c.6.3 1.3-.2 1.2-.9l-.6-3.7 2.7-2.6c.5-.5.2-1.3-.4-1.4l-3.7-.5-1.7-3.4c-.5-.6-1.3-.7-1.6 0zM485.7 1567.5l-1.7 3.4-3.7.5c-.7.1-.9.9-.4 1.4l2.7 2.6-.6 3.7c-.1.7.6 1.2 1.2.9l3.3-1.7 3.3 1.7c.6.3 1.3-.2 1.2-.9l-.6-3.7 2.7-2.6c.5-.5.2-1.3-.4-1.4l-3.7-.5-1.7-3.4c-.5-.6-1.3-.7-1.6 0z"/><path class="st13" d="M468.7 1567.5l-1.7 3.4-3.7.5c-.7.1-.9.9-.4 1.4l2.7 2.6-.6 3.7c-.1.7.6 1.2 1.2.9l3.3-1.7 3.3 1.7c.6.3 1.3-.2 1.2-.9l-.6-3.7 2.7-2.6c.5-.5.2-1.3-.4-1.4l-3.7-.5-1.7-3.4c-.5-.6-1.3-.7-1.6 0zM451.7 1567.5l-1.7 3.4-3.7.5c-.7.1-.9.9-.4 1.4l2.7 2.6-.6 3.7c-.1.7.6 1.2 1.2.9l3.3-1.7 3.3 1.7c.6.3 1.3-.2 1.2-.9l-.6-3.7 2.7-2.6c.5-.5.2-1.3-.4-1.4l-3.7-.5-1.7-3.4c-.5-.6-1.3-.7-1.6 0zM434.7 1567.5l-1.7 3.4-3.7.5c-.7.1-.9.9-.4 1.4l2.7 2.6-.6 3.7c-.1.7.6 1.2 1.2.9l3.3-1.7 3.3 1.7c.6.3 1.3-.2 1.2-.9l-.6-3.7 2.7-2.6c.5-.5.2-1.3-.4-1.4l-3.7-.5-1.7-3.4c-.5-.6-1.3-.7-1.6 0z"/><path fill="none" d="M518.3 1569H532v11h-13.7z"/><text transform="translate(518.333 1577.616)" fill="#757575" font-family="Cairo-Regular" font-size="12">(2)</text></g><g id="Flag_5_" class="st0"><image width="86" height="76" id="Produto_Novo_9_" xlink:href="../../../../../Downloads/image.png" transform="translate(538 1231)" overflow="visible"/><g id="Desconto_7_" class="st8"><g id="Flag_Desconto_7_"><path class="st14" d="M387 1339h-58v-83h58l42 42z"/><path class="st15" d="M329 1256v-4l8-7v11zM329 1339v4l8 7v-11z"/></g><path fill="none" d="M337 1271.7h50v51.3h-50z"/><text transform="translate(337 1290.566)"><tspan x="0" y="0" class="st9" font-family="Cairo-Bold" font-size="27">30%</tspan><tspan x="0" y="32.4" class="st9" font-family="Cairo-Regular" font-size="27">OFF</tspan></text></g></g><g id="Hover_2_" class="st0"><path class="st8 st16" d="M630.8 1238.3v438H329.3v-438h301.5m.7-.8h-303V1677h303v-439.5z"/><g id="Comprar_2_" class="st8"><path class="st9" d="M328.5 1632h303v47h-303z"/><path fill="none" d="M336 1646h288v20H336z"/><text transform="translate(440.961 1661.664)" class="st6" font-family="Cairo-SemiBold" font-size="22">comprar</text></g><g id="Info_2_" class="st8"><path class="st6" d="M336 1559h288v73H336z"/><path fill="none" d="M332 1578h288v15H332z"/><text transform="translate(393.465 1589.488)"><tspan x="0" y="0" fill="#212121" font-family="Cairo-Regular" font-size="16">Por apenas: </tspan><tspan x="82.6" y="0" fill="#212121" font-family="Cairo-Bold" font-size="16">3x R$ 16,63</tspan></text><path fill="none" d="M332 1602h288v15H332z"/><text transform="translate(411.241 1613.488)" fill="#616161" font-family="Cairo-Regular" font-size="16">ou R$ 49,90 à vista</text></g></g></g><g id="_x32_.Produto_2_"><defs><path id="SVGID_25_" d="M638 1244h288v288H638z"/></defs><clipPath id="SVGID_26_"><use xlink:href="#SVGID_25_" overflow="visible"/></clipPath><g clip-path="url(#SVGID_26_)"><image width="1250" height="1250" xlink:href="1682B98A.jpg" transform="translate(624 1241) scale(.2448)" overflow="visible"/></g><path fill="none" d="M638 1543h288v15H638z"/><text transform="translate(689.49 1554.488)" fill="#616161" font-family="Cairo-Regular" font-size="16">CAMISETA PRA TE LOUVAR</text><path fill="none" d="M638 1597h288v15H638z"/><text transform="translate(699.465 1608.488)"><tspan x="0" y="0" fill="#212121" font-family="Cairo-Regular" font-size="16">Por apenas: </tspan><tspan x="82.6" y="0" fill="#212121" font-family="Cairo-Bold" font-size="16">3x R$ 16,63</tspan></text><g id="Avaliação_20_"><path class="st12" d="M804.7 1566.5l-1.7 3.4-3.7.5c-.7.1-.9.9-.4 1.4l2.7 2.6-.6 3.7c-.1.7.6 1.2 1.2.9l3.3-1.7 3.3 1.7c.6.3 1.3-.2 1.2-.9l-.6-3.7 2.7-2.6c.5-.5.2-1.3-.4-1.4l-3.7-.5-1.7-3.4c-.5-.6-1.3-.7-1.6 0zM787.7 1566.5l-1.7 3.4-3.7.5c-.7.1-.9.9-.4 1.4l2.7 2.6-.6 3.7c-.1.7.6 1.2 1.2.9l3.3-1.7 3.3 1.7c.6.3 1.3-.2 1.2-.9l-.6-3.7 2.7-2.6c.5-.5.2-1.3-.4-1.4l-3.7-.5-1.7-3.4c-.5-.6-1.3-.7-1.6 0z"/><path class="st13" d="M770.7 1566.5l-1.7 3.4-3.7.5c-.7.1-.9.9-.4 1.4l2.7 2.6-.6 3.7c-.1.7.6 1.2 1.2.9l3.3-1.7 3.3 1.7c.6.3 1.3-.2 1.2-.9l-.6-3.7 2.7-2.6c.5-.5.2-1.3-.4-1.4l-3.7-.5-1.7-3.4c-.5-.6-1.3-.7-1.6 0zM753.7 1566.5l-1.7 3.4-3.7.5c-.7.1-.9.9-.4 1.4l2.7 2.6-.6 3.7c-.1.7.6 1.2 1.2.9l3.3-1.7 3.3 1.7c.6.3 1.3-.2 1.2-.9l-.6-3.7 2.7-2.6c.5-.5.2-1.3-.4-1.4l-3.7-.5-1.7-3.4c-.5-.6-1.3-.7-1.6 0zM736.7 1566.5l-1.7 3.4-3.7.5c-.7.1-.9.9-.4 1.4l2.7 2.6-.6 3.7c-.1.7.6 1.2 1.2.9l3.3-1.7 3.3 1.7c.6.3 1.3-.2 1.2-.9l-.6-3.7 2.7-2.6c.5-.5.2-1.3-.4-1.4l-3.7-.5-1.7-3.4c-.5-.6-1.3-.7-1.6 0z"/><path fill="none" d="M820.3 1568H834v11h-13.7z"/><text transform="translate(820.333 1576.616)" fill="#757575" font-family="Cairo-Regular" font-size="12">(2)</text></g></g><g id="_x33_.Produto_2_"><defs><path id="SVGID_27_" d="M941 1244h288v288H941z"/></defs><clipPath id="SVGID_28_"><use xlink:href="#SVGID_27_" overflow="visible"/></clipPath><g clip-path="url(#SVGID_28_)"><image width="600" height="600" xlink:href="1682B98D.jpg" transform="matrix(.48 0 0 .48 941 1244)" overflow="visible"/></g><g clip-path="url(#SVGID_28_)"><image width="1250" height="1250" xlink:href="1682B98E.jpg" transform="translate(938 1242) scale(.2344)" overflow="visible"/></g><path fill="none" d="M941 1543h288v15H941z"/><text transform="translate(970.298 1554.488)" fill="#616161" font-family="Cairo-Regular" font-size="16">CAMISETA ORAÇÃO DE UM JUSTO</text><path fill="none" d="M941 1620h288v15H941z"/><text transform="translate(1002.465 1631.488)"><tspan x="0" y="0" fill="#212121" font-family="Cairo-Regular" font-size="16">Por apenas: </tspan><tspan x="82.6" y="0" fill="#212121" font-family="Cairo-Bold" font-size="16">3x R$ 16,63</tspan></text><g id="Avaliação_18_"><path class="st12" d="M1107.7 1566.5l-1.7 3.4-3.7.5c-.7.1-.9.9-.4 1.4l2.7 2.6-.6 3.7c-.1.7.6 1.2 1.2.9l3.3-1.7 3.3 1.7c.6.3 1.3-.2 1.2-.9l-.6-3.7 2.7-2.6c.5-.5.2-1.3-.4-1.4l-3.7-.5-1.7-3.4c-.5-.6-1.3-.7-1.6 0zM1090.7 1566.5l-1.7 3.4-3.7.5c-.7.1-.9.9-.4 1.4l2.7 2.6-.6 3.7c-.1.7.6 1.2 1.2.9l3.3-1.7 3.3 1.7c.6.3 1.3-.2 1.2-.9l-.6-3.7 2.7-2.6c.5-.5.2-1.3-.4-1.4l-3.7-.5-1.7-3.4c-.5-.6-1.3-.7-1.6 0z"/><path class="st13" d="M1073.7 1566.5l-1.7 3.4-3.7.5c-.7.1-.9.9-.4 1.4l2.7 2.6-.6 3.7c-.1.7.6 1.2 1.2.9l3.3-1.7 3.3 1.7c.6.3 1.3-.2 1.2-.9l-.6-3.7 2.7-2.6c.5-.5.2-1.3-.4-1.4l-3.7-.5-1.7-3.4c-.5-.6-1.3-.7-1.6 0zM1056.7 1566.5l-1.7 3.4-3.7.5c-.7.1-.9.9-.4 1.4l2.7 2.6-.6 3.7c-.1.7.6 1.2 1.2.9l3.3-1.7 3.3 1.7c.6.3 1.3-.2 1.2-.9l-.6-3.7 2.7-2.6c.5-.5.2-1.3-.4-1.4l-3.7-.5-1.7-3.4c-.5-.6-1.3-.7-1.6 0zM1039.7 1566.5l-1.7 3.4-3.7.5c-.7.1-.9.9-.4 1.4l2.7 2.6-.6 3.7c-.1.7.6 1.2 1.2.9l3.3-1.7 3.3 1.7c.6.3 1.3-.2 1.2-.9l-.6-3.7 2.7-2.6c.5-.5.2-1.3-.4-1.4l-3.7-.5-1.7-3.4c-.5-.6-1.3-.7-1.6 0z"/><path fill="none" d="M1123.3 1568h13.7v11h-13.7z"/><text transform="translate(1123.333 1576.616)" fill="#757575" font-family="Cairo-Regular" font-size="12">(2)</text></g><g id="Desconto_6_"><g id="Flag_Desconto_6_"><path class="st14" d="M991 1338h-58v-83h58l42 42z"/><path class="st15" d="M933 1255v-4l8-7v11zM933 1338v4l8 7v-11z"/></g><path fill="none" d="M941 1270.7h50v51.3h-50z"/><text transform="translate(941 1289.566)"><tspan x="0" y="0" class="st9" font-family="Cairo-Bold" font-size="27">50%</tspan><tspan x="0" y="32.4" class="st9" font-family="Cairo-Regular" font-size="27">OFF</tspan></text></g><g id="Preço_anterior_1_"><path fill="none" d="M941 1597h288v15H941z"/><text transform="translate(1046.878 1607.052)" class="st13" font-family="Cairo-Regular" font-size="14">De: R$ 59,00</text><path class="st18" d="M1040 1603h90"/></g></g><g id="_x34_.Produto_2_"><defs><path id="SVGID_29_" d="M1243 1244h288v288h-288z"/></defs><clipPath id="SVGID_30_"><use xlink:href="#SVGID_29_" overflow="visible"/></clipPath><g clip-path="url(#SVGID_30_)"><image width="1250" height="1250" xlink:href="1682B98C.jpg" transform="translate(1239 1243) scale(.2352)" overflow="visible"/></g><path fill="none" d="M1243 1543h288v15h-288z"/><text transform="translate(1265.098 1554.488)" fill="#616161" font-family="Cairo-Regular" font-size="16">CAMISETA VIOLÃO TONY ALLYSSON</text><path fill="none" d="M1243 1597h288v15h-288z"/><text transform="translate(1304.465 1608.488)"><tspan x="0" y="0" fill="#212121" font-family="Cairo-Regular" font-size="16">Por apenas: </tspan><tspan x="82.6" y="0" fill="#212121" font-family="Cairo-Bold" font-size="16">3x R$ 16,63</tspan></text><g id="Avaliação_9_"><path class="st12" d="M1409.7 1566.5l-1.7 3.4-3.7.5c-.7.1-.9.9-.4 1.4l2.7 2.6-.6 3.7c-.1.7.6 1.2 1.2.9l3.3-1.7 3.3 1.7c.6.3 1.3-.2 1.2-.9l-.6-3.7 2.7-2.6c.5-.5.2-1.3-.4-1.4l-3.7-.5-1.7-3.4c-.5-.6-1.3-.7-1.6 0zM1392.7 1566.5l-1.7 3.4-3.7.5c-.7.1-.9.9-.4 1.4l2.7 2.6-.6 3.7c-.1.7.6 1.2 1.2.9l3.3-1.7 3.3 1.7c.6.3 1.3-.2 1.2-.9l-.6-3.7 2.7-2.6c.5-.5.2-1.3-.4-1.4l-3.7-.5-1.7-3.4c-.5-.6-1.3-.7-1.6 0z"/><path class="st13" d="M1375.7 1566.5l-1.7 3.4-3.7.5c-.7.1-.9.9-.4 1.4l2.7 2.6-.6 3.7c-.1.7.6 1.2 1.2.9l3.3-1.7 3.3 1.7c.6.3 1.3-.2 1.2-.9l-.6-3.7 2.7-2.6c.5-.5.2-1.3-.4-1.4l-3.7-.5-1.7-3.4c-.5-.6-1.3-.7-1.6 0zM1358.7 1566.5l-1.7 3.4-3.7.5c-.7.1-.9.9-.4 1.4l2.7 2.6-.6 3.7c-.1.7.6 1.2 1.2.9l3.3-1.7 3.3 1.7c.6.3 1.3-.2 1.2-.9l-.6-3.7 2.7-2.6c.5-.5.2-1.3-.4-1.4l-3.7-.5-1.7-3.4c-.5-.6-1.3-.7-1.6 0zM1341.7 1566.5l-1.7 3.4-3.7.5c-.7.1-.9.9-.4 1.4l2.7 2.6-.6 3.7c-.1.7.6 1.2 1.2.9l3.3-1.7 3.3 1.7c.6.3 1.3-.2 1.2-.9l-.6-3.7 2.7-2.6c.5-.5.2-1.3-.4-1.4l-3.7-.5-1.7-3.4c-.5-.6-1.3-.7-1.6 0z"/><path fill="none" d="M1425.3 1568h13.7v11h-13.7z"/><text transform="translate(1425.333 1576.616)" fill="#757575" font-family="Cairo-Regular" font-size="12">(2)</text></g></g><g id="arrow_e_2_"><g id="XMLID_13_"><path id="XMLID_14_" class="st9" d="M286.2 1393l27.9 27.6 2.4-2.3-26.4-26.5 26.5-26.5-2.5-2.3-27.9 27.7z"/></g></g><g id="arrow_d_5_"><g id="XMLID_1_"><path id="XMLID_2_" class="st9" d="M1575.4 1390.7l-27.9-27.7-2.4 2.3 26.4 26.5-26.5 26.5 2.5 2.3 27.9-27.6z"/></g></g><g id="Slideshow_2_"><circle class="st9" cx="876.9" cy="1720.5" r="8.5"/><circle class="st17" cx="905.6" cy="1720.5" r="8.5"/><circle class="st17" cx="932.4" cy="1720.5" r="8.5"/><circle class="st17" cx="959.2" cy="1720.5" r="8.5"/><circle class="st17" cx="986.1" cy="1720.5" r="8.5"/></g><path class="st9" d="M1109 1171l12-.1h12c8 0 16 .1 24 0l24-.1c8 0 16 .1 24 .1-8 0-16 .1-24 .1l-24-.1c-8-.1-16 0-24 0h-12l-12 .1z"/><path transform="rotate(-45.001 1123.992 1171.019)" class="st6" d="M1113.5 1160.5h21v21h-21z"/><path class="st9" d="M1124 1156.2l7.5 7.2 7.6 7.4.3.3-.3.3c-2.4 2.5-4.9 5-7.4 7.5l-7.4 7.5-.4.4-.4-.4-7.4-7.5c-2.5-2.5-4.9-5-7.4-7.5l-.3-.3.3-.3 7.6-7.4 7.7-7.2zm0 0l-7.3 7.7-7.2 7.5v-.5c2.5 2.4 5 4.9 7.5 7.4l7.5 7.4h-.7l7.5-7.4c2.5-2.5 5-4.9 7.5-7.4v.5l-7.2-7.5-7.6-7.7z"/><g><path transform="rotate(-45.001 1152.992 1171.019)" class="st6" d="M1145.9 1163.9h14.1v14.1h-14.1z"/><path class="st9" d="M1153 1161l5.1 4.8 5.2 5 .3.3-.3.3c-1.6 1.7-3.3 3.4-4.9 5.1l-5 5-.4.4-.4-.4-5-5c-1.6-1.7-3.3-3.3-5-5l-.3-.3.3-.3 5.2-5 5.2-4.9zm0 0l-4.9 5.2-4.8 5v-.5c1.7 1.6 3.4 3.3 5 5l5 5h-.7l5-5c1.7-1.7 3.3-3.3 5.1-4.9v.5l-4.8-5-4.9-5.3z"/></g><g><path class="st9" d="M751 1170l-12 .1h-12c-8 0-16-.1-24 0l-24 .1c-8 0-16-.1-24-.1 8 0 16-.1 24-.1l24 .1c8 .1 16 0 24 0h12l12-.1z"/><path transform="rotate(-45.001 735.99 1170.014)" class="st6" d="M725.5 1159.5h21v21h-21z"/><path class="st9" d="M736 1184.8l-7.5-7.2-7.6-7.4-.3-.3.3-.3c2.4-2.5 4.9-5 7.4-7.5l7.4-7.5.4-.4.4.4 7.4 7.5c2.5 2.5 4.9 5 7.4 7.5l.3.3-.3.3-7.6 7.4-7.7 7.2zm0 0l7.3-7.7 7.2-7.5v.5c-2.5-2.4-5-4.9-7.5-7.4l-7.5-7.4h.7l-7.5 7.4c-2.5 2.5-5 4.9-7.5 7.4v-.5l7.2 7.5 7.6 7.7z"/><g><path transform="rotate(-45.001 706.99 1170.014)" class="st6" d="M699.9 1162.9H714v14.1h-14.1z"/><path class="st9" d="M707 1180l-5.1-4.8-5.2-5-.3-.3.3-.3c1.6-1.7 3.3-3.4 4.9-5.1l5-5 .4-.4.4.4 5 5c1.6 1.7 3.3 3.3 5 5l.3.3-.3.3-5.2 5-5.2 4.9zm0 0l4.9-5.2 4.8-5v.5c-1.7-1.6-3.4-3.3-5-5l-5-5h.7l-5 5c-1.7 1.7-3.3 3.3-5.1 4.9v-.5l4.8 5 4.9 5.3z"/></g></g></g><g id="Estilo_e_Elegância"><path fill="none" d="M248 1796h1366v35H248z"/><text transform="translate(755.983 1823.2)" class="st9" font-family="Mitr-Regular" font-size="40">Estilo e Elegância</text><g id="_x31_.Produto_3_"><defs><path id="SVGID_31_" d="M336 1888h288v288H336z"/></defs><clipPath id="SVGID_32_"><use xlink:href="#SVGID_31_" overflow="visible"/></clipPath><g clip-path="url(#SVGID_32_)"><image width="600" height="600" xlink:href="1682B9AF.jpg" transform="matrix(.48 0 0 .48 336 1888)" overflow="visible"/></g><g clip-path="url(#SVGID_32_)"><image width="1250" height="1250" xlink:href="1682B991.jpg" transform="translate(331 1887) scale(.2376)" overflow="visible"/></g><path fill="none" d="M336 2187h288v15H336z"/><text transform="translate(425.057 2198.488)" fill="#616161" font-family="Cairo-Regular" font-size="16">CAMISETA JOÃO</text><path fill="none" d="M336 2241h288v15H336z"/><text transform="translate(397.465 2252.488)"><tspan x="0" y="0" fill="#212121" font-family="Cairo-Regular" font-size="16">Por apenas: </tspan><tspan x="82.6" y="0" fill="#212121" font-family="Cairo-Bold" font-size="16">3x R$ 16,63</tspan></text><g id="Avaliação_30_"><path class="st12" d="M502.7 2210.5l-1.7 3.4-3.7.5c-.7.1-.9.9-.4 1.4l2.7 2.6-.6 3.7c-.1.7.6 1.2 1.2.9l3.3-1.7 3.3 1.7c.6.3 1.3-.2 1.2-.9l-.6-3.7 2.7-2.6c.5-.5.2-1.3-.4-1.4l-3.7-.5-1.7-3.4c-.5-.6-1.3-.7-1.6 0zM485.7 2210.5l-1.7 3.4-3.7.5c-.7.1-.9.9-.4 1.4l2.7 2.6-.6 3.7c-.1.7.6 1.2 1.2.9l3.3-1.7 3.3 1.7c.6.3 1.3-.2 1.2-.9l-.6-3.7 2.7-2.6c.5-.5.2-1.3-.4-1.4l-3.7-.5-1.7-3.4c-.5-.6-1.3-.7-1.6 0z"/><path class="st13" d="M468.7 2210.5l-1.7 3.4-3.7.5c-.7.1-.9.9-.4 1.4l2.7 2.6-.6 3.7c-.1.7.6 1.2 1.2.9l3.3-1.7 3.3 1.7c.6.3 1.3-.2 1.2-.9l-.6-3.7 2.7-2.6c.5-.5.2-1.3-.4-1.4l-3.7-.5-1.7-3.4c-.5-.6-1.3-.7-1.6 0zM451.7 2210.5l-1.7 3.4-3.7.5c-.7.1-.9.9-.4 1.4l2.7 2.6-.6 3.7c-.1.7.6 1.2 1.2.9l3.3-1.7 3.3 1.7c.6.3 1.3-.2 1.2-.9l-.6-3.7 2.7-2.6c.5-.5.2-1.3-.4-1.4l-3.7-.5-1.7-3.4c-.5-.6-1.3-.7-1.6 0zM434.7 2210.5l-1.7 3.4-3.7.5c-.7.1-.9.9-.4 1.4l2.7 2.6-.6 3.7c-.1.7.6 1.2 1.2.9l3.3-1.7 3.3 1.7c.6.3 1.3-.2 1.2-.9l-.6-3.7 2.7-2.6c.5-.5.2-1.3-.4-1.4l-3.7-.5-1.7-3.4c-.5-.6-1.3-.7-1.6 0z"/><path fill="none" d="M518.3 2212H532v11h-13.7z"/><text transform="translate(518.333 2220.616)" fill="#757575" font-family="Cairo-Regular" font-size="12">(2)</text></g><g id="Flag_6_" class="st0"><image width="86" height="76" id="Produto_Novo_8_" xlink:href="../../../../../Downloads/image.png" transform="translate(538 1874)" overflow="visible"/><g id="Desconto_9_" class="st8"><g id="Flag_Desconto_9_"><path class="st14" d="M387 1982h-58v-83h58l42 42z"/><path class="st15" d="M329 1899v-4l8-7v11zM329 1982v4l8 7v-11z"/></g><path fill="none" d="M337 1914.7h50v51.3h-50z"/><text transform="translate(337 1933.566)"><tspan x="0" y="0" class="st9" font-family="Cairo-Bold" font-size="27">30%</tspan><tspan x="0" y="32.4" class="st9" font-family="Cairo-Regular" font-size="27">OFF</tspan></text></g></g><g id="Hover_3_" class="st0"><path class="st8 st16" d="M630.8 1881.3v438H329.3v-438h301.5m.7-.8h-303V2320h303v-439.5z"/><g id="Comprar_3_" class="st8"><path class="st9" d="M328.5 2275h303v47h-303z"/><path fill="none" d="M336 2289h288v20H336z"/><text transform="translate(440.961 2304.664)" class="st6" font-family="Cairo-SemiBold" font-size="22">comprar</text></g><g id="Info_3_" class="st8"><path class="st6" d="M336 2202h288v73H336z"/><path fill="none" d="M332 2221h288v15H332z"/><text transform="translate(393.465 2232.488)"><tspan x="0" y="0" fill="#212121" font-family="Cairo-Regular" font-size="16">Por apenas: </tspan><tspan x="82.6" y="0" fill="#212121" font-family="Cairo-Bold" font-size="16">3x R$ 16,63</tspan></text><path fill="none" d="M332 2245h288v15H332z"/><text transform="translate(411.241 2256.488)" fill="#616161" font-family="Cairo-Regular" font-size="16">ou R$ 49,90 à vista</text></g></g></g><g id="_x32_.Produto_3_"><defs><path id="SVGID_33_" d="M638 1887h288v288H638z"/></defs><clipPath id="SVGID_34_"><use xlink:href="#SVGID_33_" overflow="visible"/></clipPath><g clip-path="url(#SVGID_34_)"><image width="1250" height="1250" xlink:href="1682B990.jpg" transform="translate(635 1886) scale(.2344)" overflow="visible"/></g><path fill="none" d="M638 2186h288v15H638z"/><text transform="translate(721.505 2197.488)" fill="#616161" font-family="Cairo-Regular" font-size="16">CAMISETA TERÇO</text><path fill="none" d="M638 2240h288v15H638z"/><text transform="translate(699.465 2251.488)"><tspan x="0" y="0" fill="#212121" font-family="Cairo-Regular" font-size="16">Por apenas: </tspan><tspan x="82.6" y="0" fill="#212121" font-family="Cairo-Bold" font-size="16">3x R$ 16,63</tspan></text><g id="Avaliação_28_"><path class="st12" d="M804.7 2209.5l-1.7 3.4-3.7.5c-.7.1-.9.9-.4 1.4l2.7 2.6-.6 3.7c-.1.7.6 1.2 1.2.9l3.3-1.7 3.3 1.7c.6.3 1.3-.2 1.2-.9l-.6-3.7 2.7-2.6c.5-.5.2-1.3-.4-1.4l-3.7-.5-1.7-3.4c-.5-.6-1.3-.7-1.6 0zM787.7 2209.5l-1.7 3.4-3.7.5c-.7.1-.9.9-.4 1.4l2.7 2.6-.6 3.7c-.1.7.6 1.2 1.2.9l3.3-1.7 3.3 1.7c.6.3 1.3-.2 1.2-.9l-.6-3.7 2.7-2.6c.5-.5.2-1.3-.4-1.4l-3.7-.5-1.7-3.4c-.5-.6-1.3-.7-1.6 0z"/><path class="st13" d="M770.7 2209.5l-1.7 3.4-3.7.5c-.7.1-.9.9-.4 1.4l2.7 2.6-.6 3.7c-.1.7.6 1.2 1.2.9l3.3-1.7 3.3 1.7c.6.3 1.3-.2 1.2-.9l-.6-3.7 2.7-2.6c.5-.5.2-1.3-.4-1.4l-3.7-.5-1.7-3.4c-.5-.6-1.3-.7-1.6 0zM753.7 2209.5l-1.7 3.4-3.7.5c-.7.1-.9.9-.4 1.4l2.7 2.6-.6 3.7c-.1.7.6 1.2 1.2.9l3.3-1.7 3.3 1.7c.6.3 1.3-.2 1.2-.9l-.6-3.7 2.7-2.6c.5-.5.2-1.3-.4-1.4l-3.7-.5-1.7-3.4c-.5-.6-1.3-.7-1.6 0zM736.7 2209.5l-1.7 3.4-3.7.5c-.7.1-.9.9-.4 1.4l2.7 2.6-.6 3.7c-.1.7.6 1.2 1.2.9l3.3-1.7 3.3 1.7c.6.3 1.3-.2 1.2-.9l-.6-3.7 2.7-2.6c.5-.5.2-1.3-.4-1.4l-3.7-.5-1.7-3.4c-.5-.6-1.3-.7-1.6 0z"/><path fill="none" d="M820.3 2211H834v11h-13.7z"/><text transform="translate(820.333 2219.616)" fill="#757575" font-family="Cairo-Regular" font-size="12">(2)</text></g></g><g id="_x33_.Produto_3_"><defs><path id="SVGID_35_" d="M941 1887h288v288H941z"/></defs><clipPath id="SVGID_36_"><use xlink:href="#SVGID_35_" overflow="visible"/></clipPath><g clip-path="url(#SVGID_36_)"><image width="1250" height="1250" xlink:href="1682B997.jpg" transform="translate(937 1885) scale(.2368)" overflow="visible"/></g><path fill="none" d="M941 2186h288v15H941z"/><text transform="translate(959.13 2197.488)" fill="#616161" font-family="Cairo-Regular" font-size="16">CAMISETA MEDALHA DE SÃO BENTO</text><path fill="none" d="M941 2240h288v15H941z"/><text transform="translate(1002.465 2251.488)"><tspan x="0" y="0" fill="#212121" font-family="Cairo-Regular" font-size="16">Por apenas: </tspan><tspan x="82.6" y="0" fill="#212121" font-family="Cairo-Bold" font-size="16">3x R$ 16,63</tspan></text><g id="Avaliação_36_"><path class="st12" d="M1107.7 2209.5l-1.7 3.4-3.7.5c-.7.1-.9.9-.4 1.4l2.7 2.6-.6 3.7c-.1.7.6 1.2 1.2.9l3.3-1.7 3.3 1.7c.6.3 1.3-.2 1.2-.9l-.6-3.7 2.7-2.6c.5-.5.2-1.3-.4-1.4l-3.7-.5-1.7-3.4c-.5-.6-1.3-.7-1.6 0zM1090.7 2209.5l-1.7 3.4-3.7.5c-.7.1-.9.9-.4 1.4l2.7 2.6-.6 3.7c-.1.7.6 1.2 1.2.9l3.3-1.7 3.3 1.7c.6.3 1.3-.2 1.2-.9l-.6-3.7 2.7-2.6c.5-.5.2-1.3-.4-1.4l-3.7-.5-1.7-3.4c-.5-.6-1.3-.7-1.6 0z"/><path class="st13" d="M1073.7 2209.5l-1.7 3.4-3.7.5c-.7.1-.9.9-.4 1.4l2.7 2.6-.6 3.7c-.1.7.6 1.2 1.2.9l3.3-1.7 3.3 1.7c.6.3 1.3-.2 1.2-.9l-.6-3.7 2.7-2.6c.5-.5.2-1.3-.4-1.4l-3.7-.5-1.7-3.4c-.5-.6-1.3-.7-1.6 0zM1056.7 2209.5l-1.7 3.4-3.7.5c-.7.1-.9.9-.4 1.4l2.7 2.6-.6 3.7c-.1.7.6 1.2 1.2.9l3.3-1.7 3.3 1.7c.6.3 1.3-.2 1.2-.9l-.6-3.7 2.7-2.6c.5-.5.2-1.3-.4-1.4l-3.7-.5-1.7-3.4c-.5-.6-1.3-.7-1.6 0zM1039.7 2209.5l-1.7 3.4-3.7.5c-.7.1-.9.9-.4 1.4l2.7 2.6-.6 3.7c-.1.7.6 1.2 1.2.9l3.3-1.7 3.3 1.7c.6.3 1.3-.2 1.2-.9l-.6-3.7 2.7-2.6c.5-.5.2-1.3-.4-1.4l-3.7-.5-1.7-3.4c-.5-.6-1.3-.7-1.6 0z"/><path fill="none" d="M1123.3 2211h13.7v11h-13.7z"/><text transform="translate(1123.333 2219.616)" fill="#757575" font-family="Cairo-Regular" font-size="12">(2)</text></g></g><g id="_x34_.Produto_3_"><defs><path id="SVGID_37_" d="M1243 1887h288v288h-288z"/></defs><clipPath id="SVGID_38_"><use xlink:href="#SVGID_37_" overflow="visible"/></clipPath><g clip-path="url(#SVGID_38_)"><image width="1250" height="1250" xlink:href="1682B993.jpg" transform="matrix(.236 0 0 .236 1240 1886)" overflow="visible"/></g><path fill="none" d="M1243 2186h288v15h-288z"/><text transform="translate(1266.45 2197.488)" fill="#616161" font-family="Cairo-Regular" font-size="16">CAMISETA JESUS MISERICORDIOSO</text><path fill="none" d="M1243 2240h288v15h-288z"/><text transform="translate(1304.465 2251.488)"><tspan x="0" y="0" fill="#212121" font-family="Cairo-Regular" font-size="16">Por apenas: </tspan><tspan x="82.6" y="0" fill="#212121" font-family="Cairo-Bold" font-size="16">3x R$ 16,63</tspan></text><g id="Avaliação_17_"><path class="st12" d="M1409.7 2209.5l-1.7 3.4-3.7.5c-.7.1-.9.9-.4 1.4l2.7 2.6-.6 3.7c-.1.7.6 1.2 1.2.9l3.3-1.7 3.3 1.7c.6.3 1.3-.2 1.2-.9l-.6-3.7 2.7-2.6c.5-.5.2-1.3-.4-1.4l-3.7-.5-1.7-3.4c-.5-.6-1.3-.7-1.6 0zM1392.7 2209.5l-1.7 3.4-3.7.5c-.7.1-.9.9-.4 1.4l2.7 2.6-.6 3.7c-.1.7.6 1.2 1.2.9l3.3-1.7 3.3 1.7c.6.3 1.3-.2 1.2-.9l-.6-3.7 2.7-2.6c.5-.5.2-1.3-.4-1.4l-3.7-.5-1.7-3.4c-.5-.6-1.3-.7-1.6 0z"/><path class="st13" d="M1375.7 2209.5l-1.7 3.4-3.7.5c-.7.1-.9.9-.4 1.4l2.7 2.6-.6 3.7c-.1.7.6 1.2 1.2.9l3.3-1.7 3.3 1.7c.6.3 1.3-.2 1.2-.9l-.6-3.7 2.7-2.6c.5-.5.2-1.3-.4-1.4l-3.7-.5-1.7-3.4c-.5-.6-1.3-.7-1.6 0zM1358.7 2209.5l-1.7 3.4-3.7.5c-.7.1-.9.9-.4 1.4l2.7 2.6-.6 3.7c-.1.7.6 1.2 1.2.9l3.3-1.7 3.3 1.7c.6.3 1.3-.2 1.2-.9l-.6-3.7 2.7-2.6c.5-.5.2-1.3-.4-1.4l-3.7-.5-1.7-3.4c-.5-.6-1.3-.7-1.6 0zM1341.7 2209.5l-1.7 3.4-3.7.5c-.7.1-.9.9-.4 1.4l2.7 2.6-.6 3.7c-.1.7.6 1.2 1.2.9l3.3-1.7 3.3 1.7c.6.3 1.3-.2 1.2-.9l-.6-3.7 2.7-2.6c.5-.5.2-1.3-.4-1.4l-3.7-.5-1.7-3.4c-.5-.6-1.3-.7-1.6 0z"/><path fill="none" d="M1425.3 2211h13.7v11h-13.7z"/><text transform="translate(1425.333 2219.616)" fill="#757575" font-family="Cairo-Regular" font-size="12">(2)</text></g><image width="86" height="76" id="Produto_Novo_10_" xlink:href="../../../../../Downloads/image.png" transform="translate(1445 1873)" overflow="visible"/></g><g id="arrow_e_5_"><g id="XMLID_25_"><path id="XMLID_26_" class="st9" d="M286.2 2036l27.9 27.6 2.4-2.3-26.4-26.5 26.5-26.5-2.5-2.3-27.9 27.7z"/></g></g><g id="arrow_d_8_"><g id="XMLID_19_"><path id="XMLID_20_" class="st9" d="M1575.4 2033.7l-27.9-27.7-2.4 2.3 26.4 26.5-26.5 26.5 2.5 2.3 27.9-27.6z"/></g></g><g id="Slideshow_3_"><circle class="st9" cx="876.9" cy="2324.5" r="8.5"/><circle class="st17" cx="905.6" cy="2324.5" r="8.5"/><circle class="st17" cx="932.4" cy="2324.5" r="8.5"/><circle class="st17" cx="959.2" cy="2324.5" r="8.5"/><circle class="st17" cx="986.1" cy="2324.5" r="8.5"/></g><path class="st9" d="M1124 1814l12-.1h12c8 0 16 .1 24 0l24-.1c8 0 16 .1 24 .1-8 0-16 .1-24 .1l-24-.1c-8-.1-16 0-24 0h-12l-12 .1z"/><path transform="rotate(-45.001 1138.984 1814.022)" class="st6" d="M1128.5 1803.5h21v21h-21z"/><path class="st9" d="M1139 1799.2l7.5 7.2 7.6 7.4.3.3-.3.3c-2.4 2.5-4.9 5-7.4 7.5l-7.4 7.5-.4.4-.4-.4-7.4-7.5c-2.5-2.5-4.9-5-7.4-7.5l-.3-.3.3-.3 7.6-7.4 7.7-7.2zm0 0l-7.3 7.7-7.2 7.5v-.5c2.5 2.4 5 4.9 7.5 7.4l7.5 7.4h-.7l7.5-7.4c2.5-2.5 5-4.9 7.5-7.4v.5l-7.2-7.5-7.6-7.7z"/><g><path transform="rotate(-45.001 1167.985 1814.022)" class="st6" d="M1160.9 1806.9h14.1v14.1h-14.1z"/><path class="st9" d="M1168 1804l5.1 4.8 5.2 5 .3.3-.3.3c-1.6 1.7-3.3 3.4-4.9 5.1l-5 5-.4.4-.4-.4-5-5c-1.6-1.7-3.3-3.3-5-5l-.3-.3.3-.3 5.2-5 5.2-4.9zm0 0l-4.9 5.2-4.8 5v-.5c1.7 1.6 3.4 3.3 5 5l5 5h-.7l5-5c1.7-1.7 3.3-3.3 5.1-4.9v.5l-4.8-5-4.9-5.3z"/></g><g><path class="st9" d="M738 1813l-12 .1h-12c-8 0-16-.1-24 0l-24 .1c-8 0-16-.1-24-.1 8 0 16-.1 24-.1l24 .1c8 .1 16 0 24 0h12l12-.1z"/><path transform="rotate(-45.001 722.983 1813.017)" class="st6" d="M712.5 1802.5h21v21h-21z"/><path class="st9" d="M723 1827.8l-7.5-7.2-7.6-7.4-.3-.3.3-.3c2.4-2.5 4.9-5 7.4-7.5l7.4-7.5.4-.4.4.4 7.4 7.5c2.5 2.5 4.9 5 7.4 7.5l.3.3-.3.3-7.6 7.4-7.7 7.2zm0 0l7.3-7.7 7.2-7.5v.5c-2.5-2.4-5-4.9-7.5-7.4l-7.5-7.4h.7l-7.5 7.4c-2.5 2.5-5 4.9-7.5 7.4v-.5l7.2 7.5 7.6 7.7z"/><g><path transform="rotate(-45.001 693.982 1813.017)" class="st6" d="M686.9 1805.9H701v14.1h-14.1z"/><path class="st9" d="M694 1823l-5.1-4.8-5.2-5-.3-.3.3-.3c1.6-1.7 3.3-3.4 4.9-5.1l5-5 .4-.4.4.4 5 5c1.6 1.7 3.3 3.3 5 5l.3.3-.3.3-5.2 5-5.2 4.9zm0 0l4.9-5.2 4.8-5v.5c-1.7-1.6-3.4-3.3-5-5l-5-5h.7l-5 5c-1.7 1.7-3.3 3.3-5.1 4.9v-.5l4.8 5 4.9 5.3z"/></g></g></g><g id="Para_Vestir_com_o_Filho"><path fill="none" d="M249 2402h1366v35H249z"/><text transform="translate(697.904 2429.2)" class="st9" font-family="Mitr-Regular" font-size="40">Para Vestir com o Filho</text><g id="_x31_.Produto_4_"><defs><path id="SVGID_39_" d="M337 2494h288v288H337z"/></defs><clipPath id="SVGID_40_"><use xlink:href="#SVGID_39_" overflow="visible"/></clipPath><g clip-path="url(#SVGID_40_)"><image width="600" height="600" xlink:href="1682B99F.jpg" transform="matrix(.48 0 0 .48 337 2494)" overflow="visible"/></g><g clip-path="url(#SVGID_40_)"><image width="1250" height="1250" xlink:href="1682B9FC.jpg" transform="translate(334 2493) scale(.2344)" overflow="visible"/></g><path fill="none" d="M337 2793h288v15H337z"/><text transform="translate(392.274 2804.488)" fill="#616161" font-family="Cairo-Regular" font-size="16">CAMISETA TUDO É DO PAI</text><path fill="none" d="M337 2847h288v15H337z"/><text transform="translate(398.465 2858.488)"><tspan x="0" y="0" fill="#212121" font-family="Cairo-Regular" font-size="16">Por apenas: </tspan><tspan x="82.6" y="0" fill="#212121" font-family="Cairo-Bold" font-size="16">3x R$ 16,63</tspan></text><g id="Avaliação_38_"><path class="st12" d="M503.7 2816.5l-1.7 3.4-3.7.5c-.7.1-.9.9-.4 1.4l2.7 2.6-.6 3.7c-.1.7.6 1.2 1.2.9l3.3-1.7 3.3 1.7c.6.3 1.3-.2 1.2-.9l-.6-3.7 2.7-2.6c.5-.5.2-1.3-.4-1.4l-3.7-.5-1.7-3.4c-.5-.6-1.3-.7-1.6 0zM486.7 2816.5l-1.7 3.4-3.7.5c-.7.1-.9.9-.4 1.4l2.7 2.6-.6 3.7c-.1.7.6 1.2 1.2.9l3.3-1.7 3.3 1.7c.6.3 1.3-.2 1.2-.9l-.6-3.7 2.7-2.6c.5-.5.2-1.3-.4-1.4l-3.7-.5-1.7-3.4c-.5-.6-1.3-.7-1.6 0z"/><path class="st13" d="M469.7 2816.5l-1.7 3.4-3.7.5c-.7.1-.9.9-.4 1.4l2.7 2.6-.6 3.7c-.1.7.6 1.2 1.2.9l3.3-1.7 3.3 1.7c.6.3 1.3-.2 1.2-.9l-.6-3.7 2.7-2.6c.5-.5.2-1.3-.4-1.4l-3.7-.5-1.7-3.4c-.5-.6-1.3-.7-1.6 0zM452.7 2816.5l-1.7 3.4-3.7.5c-.7.1-.9.9-.4 1.4l2.7 2.6-.6 3.7c-.1.7.6 1.2 1.2.9l3.3-1.7 3.3 1.7c.6.3 1.3-.2 1.2-.9l-.6-3.7 2.7-2.6c.5-.5.2-1.3-.4-1.4l-3.7-.5-1.7-3.4c-.5-.6-1.3-.7-1.6 0zM435.7 2816.5l-1.7 3.4-3.7.5c-.7.1-.9.9-.4 1.4l2.7 2.6-.6 3.7c-.1.7.6 1.2 1.2.9l3.3-1.7 3.3 1.7c.6.3 1.3-.2 1.2-.9l-.6-3.7 2.7-2.6c.5-.5.2-1.3-.4-1.4l-3.7-.5-1.7-3.4c-.5-.6-1.3-.7-1.6 0z"/><path fill="none" d="M519.3 2818H533v11h-13.7z"/><text transform="translate(519.333 2826.616)" fill="#757575" font-family="Cairo-Regular" font-size="12">(2)</text></g><g id="Flag_7_" class="st0"><image width="86" height="76" id="Produto_Novo_13_" xlink:href="../../../../../Downloads/image.png" transform="translate(539 2480)" overflow="visible"/><g id="Desconto_11_" class="st8"><g id="Flag_Desconto_11_"><path class="st14" d="M388 2588h-58v-83h58l42 42z"/><path class="st15" d="M330 2505v-4l8-7v11zM330 2588v4l8 7v-11z"/></g><path fill="none" d="M338 2520.7h50v51.3h-50z"/><text transform="translate(338 2539.566)"><tspan x="0" y="0" class="st9" font-family="Cairo-Bold" font-size="27">30%</tspan><tspan x="0" y="32.4" class="st9" font-family="Cairo-Regular" font-size="27">OFF</tspan></text></g></g><g id="Hover_4_" class="st0"><path class="st8 st16" d="M631.8 2487.3v438H330.3v-438h301.5m.7-.8h-303V2926h303v-439.5z"/><g id="Comprar_4_" class="st8"><path class="st9" d="M329.5 2881h303v47h-303z"/><path fill="none" d="M337 2895h288v20H337z"/><text transform="translate(441.961 2910.664)" class="st6" font-family="Cairo-SemiBold" font-size="22">comprar</text></g><g id="Info_4_" class="st8"><path class="st6" d="M337 2808h288v73H337z"/><path fill="none" d="M333 2827h288v15H333z"/><text transform="translate(394.465 2838.488)"><tspan x="0" y="0" fill="#212121" font-family="Cairo-Regular" font-size="16">Por apenas: </tspan><tspan x="82.6" y="0" fill="#212121" font-family="Cairo-Bold" font-size="16">3x R$ 16,63</tspan></text><path fill="none" d="M333 2851h288v15H333z"/><text transform="translate(412.241 2862.488)" fill="#616161" font-family="Cairo-Regular" font-size="16">ou R$ 49,90 à vista</text></g></g></g><g id="_x32_.Produto_4_"><defs><path id="SVGID_41_" d="M639 2493h288v288H639z"/></defs><clipPath id="SVGID_42_"><use xlink:href="#SVGID_41_" overflow="visible"/></clipPath><g clip-path="url(#SVGID_42_)"><image width="600" height="600" xlink:href="1682B9FD.jpg" transform="matrix(.48 0 0 .48 639 2493)" overflow="visible"/></g><g clip-path="url(#SVGID_42_)"><image width="1250" height="1250" xlink:href="1682B9FB.jpg" transform="translate(638 2492) scale(.2312)" overflow="visible"/></g><path fill="none" d="M639 2792h288v15H639z"/><text transform="translate(660.747 2803.488)" fill="#616161" font-family="Cairo-Regular" font-size="16">CAMISETA INFANTIL TUDO É DO PAI</text><path fill="none" d="M639 2869h288v15H639z"/><text transform="translate(700.465 2880.488)"><tspan x="0" y="0" fill="#212121" font-family="Cairo-Regular" font-size="16">Por apenas: </tspan><tspan x="82.6" y="0" fill="#212121" font-family="Cairo-Bold" font-size="16">3x R$ 16,63</tspan></text><g id="Avaliação_33_"><path class="st12" d="M805.7 2815.5l-1.7 3.4-3.7.5c-.7.1-.9.9-.4 1.4l2.7 2.6-.6 3.7c-.1.7.6 1.2 1.2.9l3.3-1.7 3.3 1.7c.6.3 1.3-.2 1.2-.9l-.6-3.7 2.7-2.6c.5-.5.2-1.3-.4-1.4l-3.7-.5-1.7-3.4c-.5-.6-1.3-.7-1.6 0zM788.7 2815.5l-1.7 3.4-3.7.5c-.7.1-.9.9-.4 1.4l2.7 2.6-.6 3.7c-.1.7.6 1.2 1.2.9l3.3-1.7 3.3 1.7c.6.3 1.3-.2 1.2-.9l-.6-3.7 2.7-2.6c.5-.5.2-1.3-.4-1.4l-3.7-.5-1.7-3.4c-.5-.6-1.3-.7-1.6 0z"/><path class="st13" d="M771.7 2815.5l-1.7 3.4-3.7.5c-.7.1-.9.9-.4 1.4l2.7 2.6-.6 3.7c-.1.7.6 1.2 1.2.9l3.3-1.7 3.3 1.7c.6.3 1.3-.2 1.2-.9l-.6-3.7 2.7-2.6c.5-.5.2-1.3-.4-1.4l-3.7-.5-1.7-3.4c-.5-.6-1.3-.7-1.6 0zM754.7 2815.5l-1.7 3.4-3.7.5c-.7.1-.9.9-.4 1.4l2.7 2.6-.6 3.7c-.1.7.6 1.2 1.2.9l3.3-1.7 3.3 1.7c.6.3 1.3-.2 1.2-.9l-.6-3.7 2.7-2.6c.5-.5.2-1.3-.4-1.4l-3.7-.5-1.7-3.4c-.5-.6-1.3-.7-1.6 0zM737.7 2815.5l-1.7 3.4-3.7.5c-.7.1-.9.9-.4 1.4l2.7 2.6-.6 3.7c-.1.7.6 1.2 1.2.9l3.3-1.7 3.3 1.7c.6.3 1.3-.2 1.2-.9l-.6-3.7 2.7-2.6c.5-.5.2-1.3-.4-1.4l-3.7-.5-1.7-3.4c-.5-.6-1.3-.7-1.6 0z"/><path fill="none" d="M821.3 2817H835v11h-13.7z"/><text transform="translate(821.333 2825.616)" fill="#757575" font-family="Cairo-Regular" font-size="12">(2)</text></g><g id="Desconto_12_"><g id="Flag_Desconto_12_"><path class="st14" d="M689 2587h-58v-83h58l42 42z"/><path class="st15" d="M631 2504v-4l8-7v11zM631 2587v4l8 7v-11z"/></g><path fill="none" d="M639 2519.7h50v51.3h-50z"/><text transform="translate(639 2538.566)"><tspan x="0" y="0" class="st9" font-family="Cairo-Bold" font-size="27">14%</tspan><tspan x="0" y="32.4" class="st9" font-family="Cairo-Regular" font-size="27">OFF</tspan></text></g><g id="Preço_anterior_4_"><path fill="none" d="M639 2846h288v15H639z"/><text transform="translate(744.878 2856.052)" class="st13" font-family="Cairo-Regular" font-size="14">De: R$ 59,00</text><path class="st18" d="M738 2852h90"/></g></g><g id="_x33_.Produto_4_"><defs><path id="SVGID_43_" d="M942 2493h288v288H942z"/></defs><clipPath id="SVGID_44_"><use xlink:href="#SVGID_43_" overflow="visible"/></clipPath><g clip-path="url(#SVGID_44_)"><image width="1250" height="1250" xlink:href="1682B9F4.jpg" transform="translate(938 2490) scale(.2368)" overflow="visible"/></g><path fill="none" d="M942 2792h288v15H942z"/><text transform="translate(970.187 2803.488)" fill="#616161" font-family="Cairo-Regular" font-size="16">CAMISETA PÓLO ESPÍRITO SANTO</text><path fill="none" d="M942 2869h288v15H942z"/><text transform="translate(1003.465 2880.488)"><tspan x="0" y="0" fill="#212121" font-family="Cairo-Regular" font-size="16">Por apenas: </tspan><tspan x="82.6" y="0" fill="#212121" font-family="Cairo-Bold" font-size="16">3x R$ 16,63</tspan></text><g id="Avaliação_34_"><path class="st12" d="M1108.7 2815.5l-1.7 3.4-3.7.5c-.7.1-.9.9-.4 1.4l2.7 2.6-.6 3.7c-.1.7.6 1.2 1.2.9l3.3-1.7 3.3 1.7c.6.3 1.3-.2 1.2-.9l-.6-3.7 2.7-2.6c.5-.5.2-1.3-.4-1.4l-3.7-.5-1.7-3.4c-.5-.6-1.3-.7-1.6 0zM1091.7 2815.5l-1.7 3.4-3.7.5c-.7.1-.9.9-.4 1.4l2.7 2.6-.6 3.7c-.1.7.6 1.2 1.2.9l3.3-1.7 3.3 1.7c.6.3 1.3-.2 1.2-.9l-.6-3.7 2.7-2.6c.5-.5.2-1.3-.4-1.4l-3.7-.5-1.7-3.4c-.5-.6-1.3-.7-1.6 0z"/><path class="st13" d="M1074.7 2815.5l-1.7 3.4-3.7.5c-.7.1-.9.9-.4 1.4l2.7 2.6-.6 3.7c-.1.7.6 1.2 1.2.9l3.3-1.7 3.3 1.7c.6.3 1.3-.2 1.2-.9l-.6-3.7 2.7-2.6c.5-.5.2-1.3-.4-1.4l-3.7-.5-1.7-3.4c-.5-.6-1.3-.7-1.6 0zM1057.7 2815.5l-1.7 3.4-3.7.5c-.7.1-.9.9-.4 1.4l2.7 2.6-.6 3.7c-.1.7.6 1.2 1.2.9l3.3-1.7 3.3 1.7c.6.3 1.3-.2 1.2-.9l-.6-3.7 2.7-2.6c.5-.5.2-1.3-.4-1.4l-3.7-.5-1.7-3.4c-.5-.6-1.3-.7-1.6 0zM1040.7 2815.5l-1.7 3.4-3.7.5c-.7.1-.9.9-.4 1.4l2.7 2.6-.6 3.7c-.1.7.6 1.2 1.2.9l3.3-1.7 3.3 1.7c.6.3 1.3-.2 1.2-.9l-.6-3.7 2.7-2.6c.5-.5.2-1.3-.4-1.4l-3.7-.5-1.7-3.4c-.5-.6-1.3-.7-1.6 0z"/><path fill="none" d="M1124.3 2817h13.7v11h-13.7z"/><text transform="translate(1124.333 2825.616)" fill="#757575" font-family="Cairo-Regular" font-size="12">(2)</text></g><g id="Desconto_10_"><g id="Flag_Desconto_10_"><path class="st14" d="M992 2587h-58v-83h58l42 42z"/><path class="st15" d="M934 2504v-4l8-7v11zM934 2587v4l8 7v-11z"/></g><path fill="none" d="M942 2519.7h50v51.3h-50z"/><text transform="translate(942 2538.566)"><tspan x="0" y="0" class="st9" font-family="Cairo-Bold" font-size="27">10%</tspan><tspan x="0" y="32.4" class="st9" font-family="Cairo-Regular" font-size="27">OFF</tspan></text></g><g id="Preço_anterior_3_"><path fill="none" d="M942 2846h288v15H942z"/><text transform="translate(1047.878 2856.052)" class="st13" font-family="Cairo-Regular" font-size="14">De: R$ 59,00</text><path class="st18" d="M1041 2852h90"/></g></g><g id="_x34_.Produto_4_"><defs><path id="SVGID_45_" d="M1244 2493h288v288h-288z"/></defs><clipPath id="SVGID_46_"><use xlink:href="#SVGID_45_" overflow="visible"/></clipPath><g clip-path="url(#SVGID_46_)"><image width="1250" height="1250" xlink:href="1682B9F7.jpg" transform="translate(1242 2489) scale(.2352)" overflow="visible"/></g><path fill="none" d="M1244 2792h288v15h-288z"/><text transform="translate(1259.555 2803.488)" fill="#616161" font-family="Cairo-Regular" font-size="16">CAMISETA INFANTIL ESPÍRITO SANTO</text><path fill="none" d="M1244 2846h288v15h-288z"/><text transform="translate(1305.465 2857.488)"><tspan x="0" y="0" fill="#212121" font-family="Cairo-Regular" font-size="16">Por apenas: </tspan><tspan x="82.6" y="0" fill="#212121" font-family="Cairo-Bold" font-size="16">3x R$ 16,63</tspan></text><g id="Avaliação_25_"><path class="st12" d="M1410.7 2815.5l-1.7 3.4-3.7.5c-.7.1-.9.9-.4 1.4l2.7 2.6-.6 3.7c-.1.7.6 1.2 1.2.9l3.3-1.7 3.3 1.7c.6.3 1.3-.2 1.2-.9l-.6-3.7 2.7-2.6c.5-.5.2-1.3-.4-1.4l-3.7-.5-1.7-3.4c-.5-.6-1.3-.7-1.6 0zM1393.7 2815.5l-1.7 3.4-3.7.5c-.7.1-.9.9-.4 1.4l2.7 2.6-.6 3.7c-.1.7.6 1.2 1.2.9l3.3-1.7 3.3 1.7c.6.3 1.3-.2 1.2-.9l-.6-3.7 2.7-2.6c.5-.5.2-1.3-.4-1.4l-3.7-.5-1.7-3.4c-.5-.6-1.3-.7-1.6 0z"/><path class="st13" d="M1376.7 2815.5l-1.7 3.4-3.7.5c-.7.1-.9.9-.4 1.4l2.7 2.6-.6 3.7c-.1.7.6 1.2 1.2.9l3.3-1.7 3.3 1.7c.6.3 1.3-.2 1.2-.9l-.6-3.7 2.7-2.6c.5-.5.2-1.3-.4-1.4l-3.7-.5-1.7-3.4c-.5-.6-1.3-.7-1.6 0zM1359.7 2815.5l-1.7 3.4-3.7.5c-.7.1-.9.9-.4 1.4l2.7 2.6-.6 3.7c-.1.7.6 1.2 1.2.9l3.3-1.7 3.3 1.7c.6.3 1.3-.2 1.2-.9l-.6-3.7 2.7-2.6c.5-.5.2-1.3-.4-1.4l-3.7-.5-1.7-3.4c-.5-.6-1.3-.7-1.6 0zM1342.7 2815.5l-1.7 3.4-3.7.5c-.7.1-.9.9-.4 1.4l2.7 2.6-.6 3.7c-.1.7.6 1.2 1.2.9l3.3-1.7 3.3 1.7c.6.3 1.3-.2 1.2-.9l-.6-3.7 2.7-2.6c.5-.5.2-1.3-.4-1.4l-3.7-.5-1.7-3.4c-.5-.6-1.3-.7-1.6 0z"/><path fill="none" d="M1426.3 2817h13.7v11h-13.7z"/><text transform="translate(1426.333 2825.616)" fill="#757575" font-family="Cairo-Regular" font-size="12">(2)</text></g><image width="86" height="76" id="Produto_Novo_14_" xlink:href="../../../../../Downloads/image.png" transform="translate(1446 2479)" overflow="visible"/></g><g id="arrow_e_7_"><g id="XMLID_51_"><path id="XMLID_52_" class="st9" d="M287.2 2642l27.9 27.6 2.4-2.3-26.4-26.5 26.5-26.5-2.5-2.3-27.9 27.7z"/></g></g><g id="arrow_d_10_"><g id="XMLID_53_"><path id="XMLID_54_" class="st9" d="M1576.4 2639.7l-27.9-27.7-2.4 2.3 26.4 26.5-26.5 26.5 2.5 2.3 27.9-27.6z"/></g></g><g id="Slideshow_4_"><circle class="st9" cx="877.9" cy="2945.5" r="8.5"/><circle class="st17" cx="906.6" cy="2945.5" r="8.5"/><circle class="st17" cx="933.4" cy="2945.5" r="8.5"/><circle class="st17" cx="960.2" cy="2945.5" r="8.5"/><circle class="st17" cx="987.1" cy="2945.5" r="8.5"/></g><path class="st9" d="M1186 2420l12-.1h12c8 0 16 .1 24 0l24-.1c8 0 16 .1 24 .1-8 0-16 .1-24 .1l-24-.1c-8-.1-16 0-24 0h-12l-12 .1z"/><path transform="rotate(-45.001 1200.978 2420.025)" class="st6" d="M1190.5 2409.5h21v21h-21z"/><path class="st9" d="M1201 2405.2l7.5 7.2 7.6 7.4.3.3-.3.3c-2.4 2.5-4.9 5-7.4 7.5l-7.4 7.5-.4.4-.4-.4-7.4-7.5c-2.5-2.5-4.9-5-7.4-7.5l-.3-.3.3-.3 7.6-7.4 7.7-7.2zm0 0l-7.3 7.7-7.2 7.5v-.5c2.5 2.4 5 4.9 7.5 7.4l7.5 7.4h-.7l7.5-7.4c2.5-2.5 5-4.9 7.5-7.4v.5l-7.2-7.5-7.6-7.7z"/><g><path transform="rotate(-45.001 1229.978 2420.026)" class="st6" d="M1222.9 2412.9h14.1v14.1h-14.1z"/><path class="st9" d="M1230 2410l5.1 4.8 5.2 5 .3.3-.3.3c-1.6 1.7-3.3 3.4-4.9 5.1l-5 5-.4.4-.4-.4-5-5c-1.6-1.7-3.3-3.3-5-5l-.3-.3.3-.3 5.2-5 5.2-4.9zm0 0l-4.9 5.2-4.8 5v-.5c1.7 1.6 3.4 3.3 5 5l5 5h-.7l5-5c1.7-1.7 3.3-3.3 5.1-4.9v.5l-4.8-5-4.9-5.3z"/></g><g><path class="st9" d="M680 2419l-12 .1h-12c-8 0-16-.1-24 0l-24 .1c-8 0-16-.1-24-.1 8 0 16-.1 24-.1l24 .1c8 .1 16 0 24 0h12l12-.1z"/><path transform="rotate(-45.001 664.975 2419.02)" class="st6" d="M654.5 2408.5h21v21h-21z"/><path class="st9" d="M665 2433.8l-7.5-7.2-7.6-7.4-.3-.3.3-.3c2.4-2.5 4.9-5 7.4-7.5l7.4-7.5.4-.4.4.4 7.4 7.5c2.5 2.5 4.9 5 7.4 7.5l.3.3-.3.3-7.6 7.4-7.7 7.2zm0 0l7.3-7.7 7.2-7.5v.5c-2.5-2.4-5-4.9-7.5-7.4l-7.5-7.4h.7l-7.5 7.4c-2.5 2.5-5 4.9-7.5 7.4v-.5l7.2 7.5 7.6 7.7z"/><g><path transform="rotate(-45.001 635.975 2419.019)" class="st6" d="M628.9 2411.9H643v14.1h-14.1z"/><path class="st9" d="M636 2429l-5.1-4.8-5.2-5-.3-.3.3-.3c1.6-1.7 3.3-3.4 4.9-5.1l5-5 .4-.4.4.4 5 5c1.6 1.7 3.3 3.3 5 5l.3.3-.3.3-5.2 5-5.2 4.9zm0 0l4.9-5.2 4.8-5v.5c-1.7-1.6-3.4-3.3-5-5l-5-5h.7l-5 5c-1.7 1.7-3.3 3.3-5.1 4.9v-.5l4.8 5 4.9 5.3z"/></g></g></g><g id="FOOTER"><defs><path id="SVGID_47_" d="M248 3008h1365v500.5H248z"/></defs><clipPath id="SVGID_48_"><use xlink:href="#SVGID_47_" overflow="visible"/></clipPath><g clip-path="url(#SVGID_48_)"><image width="1365" height="442" xlink:href="1682B9EB.jpg" transform="translate(249.02 2994.748) scale(1.0194)" overflow="visible"/></g><g clip-path="url(#SVGID_48_)"><image width="1350" height="76" xlink:href="1682B9EC.jpg" transform="translate(248 3390.058) scale(1.0194)" overflow="visible"/></g></g><path class="st19" d="M248 3395h1366"/><path fill="none" d="M996-471h382v38H996z"/><text transform="translate(996 -460.12)"><tspan x="0" y="0" class="st6" font-family="Mitr-Light" font-size="16">Lorem ipsum dolor sit amet, consectetuer </tspan><tspan x="0" y="20" class="st6" font-family="Mitr-Light" font-size="16">adipiscing elit, sed diam nonummy</tspan></text><path fill="none" d="M998-393h268v15H998z"/><text transform="translate(998 -382.12)"><tspan x="0" y="0" class="st6" font-family="Mitr-SemiBold" font-size="16">01</tspan><tspan x="19.9" y="0" class="st6" font-family="Mitr-ExtraLight" font-size="16">/02</tspan><tspan x="47.9" y="0" fill="#081a5c" font-family="Mitr-ExtraLight" font-size="16"> </tspan><tspan x="55.1" y="0" fill="#f58026" font-family="Mitr-Regular" font-size="16">| “Look Sagrada Família”</tspan></text><path class="st20" d="M1547-533h67v67h-67z"/><g id="arrow_d_11_"><g id="XMLID_61_"><path id="XMLID_62_" class="st6" d="M1590.1-501l-18.2-18-1.6 1.5 17.3 17.3-17.3 17.2 1.6 1.5 18.2-18z"/></g></g><path transform="rotate(-180 281.5 -500.5)" class="st20" d="M248-534h67v67h-67z"/><g id="arrow_d_13_"><g id="XMLID_57_"><path id="XMLID_58_" class="st6" d="M271.9-499l18.2 18 1.6-1.5-17.3-17.3 17.3-17.2-1.6-1.5-18.2 18z"/></g></g><path d="M1642-772h1366V-4H1642z"/><g id="SUGESTÕES" class="st0"><linearGradient id="degrade_branco_1_" gradientUnits="userSpaceOnUse" x1="931" y1="-250" x2="931" y2="-114" gradientTransform="rotate(180 931 -183.5)"><stop offset="0" stop-opacity=".75"/><stop offset=".146" stop-opacity=".64"/><stop offset="1" stop-opacity="0"/></linearGradient><path id="degrade_branco" class="st21" d="M1614-117H248v-136h1366z"/><g id="ver_sugestoes" class="st8"><g class="st22"><image width="341" height="86" xlink:href="1682B9EC.png" transform="translate(761 -212)" overflow="visible" opacity=".5"/><linearGradient id="SVGID_49_" gradientUnits="userSpaceOnUse" x1="980.378" y1="-85.341" x2="882.622" y2="-254.659"><stop offset="0" stop-color="#faa05c"/><stop offset="1" stop-color="#f58026"/></linearGradient><path class="st23" d="M1059-136H804c-18.8 0-34-15.2-34-34s15.2-34 34-34h255c18.8 0 34 15.2 34 34s-15.2 34-34 34z"/></g><path fill="none" d="M903-186h115v32H903z"/><text transform="translate(903 -175.12)"><tspan x="0" y="0" class="st6" font-family="Mitr-Regular" font-size="16">Ver sugestões</tspan><tspan x="0" y="20" class="st6" font-family="Mitr-Regular" font-size="16">de presentes</tspan></text><path class="st6" d="M861.6-155.8c.2.2.4.3.7.3.2 0 .5-.1.7-.3l10-10c.4-.4.4-1 0-1.3-.4-.4-1-.4-1.3 0l-8.4 8.4v-25.8c0-.5-.4-.9-.9-.9s-.9.4-.9.9v25.8l-8.4-8.4c-.4-.4-1-.4-1.3 0-.4.4-.4 1 0 1.3l9.8 10z"/><circle class="st24" cx="862" cy="-170" r="26"/></g></g><g><path class="st9" d="M98 17l-12 .1H74c-8 0-16-.1-24 0l-24 .1c-8 0-16-.1-24-.1 8 0 16-.1 24-.1l24 .1c8 .1 16 0 24 0h12l12-.1z"/><path transform="rotate(-45.001 83 17.001)" class="st6" d="M72.5 6.5h21v21h-21z"/><path class="st9" d="M83 31.8l-7.5-7.2-7.6-7.4-.3-.2.3-.3c2.4-2.5 4.9-5 7.4-7.5l7.4-7.5.3-.3.4.4 7.4 7.5c2.5 2.5 4.9 5 7.4 7.5l.3.3-.3.3-7.6 7.4-7.6 7zm0 0l7.3-7.7 7.2-7.5v.5c-2.5-2.4-5-4.9-7.5-7.4l-7.5-7.4h.7l-7.5 7.4c-2.5 2.5-5 4.9-7.5 7.4v-.5l7.2 7.5 7.6 7.7z"/><g><path transform="rotate(-45.001 54 17)" class="st6" d="M46.9 9.9H61V24H46.9z"/><path class="st9" d="M54 27l-5.1-4.8-5.2-5-.2-.2.3-.3c1.6-1.7 3.3-3.4 4.9-5.1l5-5 .3-.3.4.4 5 5c1.6 1.7 3.3 3.3 5 5l.3.3-.3.3-5.2 5L54 27zm0 0l4.9-5.2 4.8-5v.5c-1.7-1.6-3.4-3.3-5-5l-5-5h.7l-5 5c-1.7 1.7-3.3 3.3-5.1 4.9v-.5l4.8 5L54 27z"/></g></g></svg>