<svg xmlns="http://www.w3.org/2000/svg" width="93" height="49" viewBox="0 0 93 49"><path fill="#8628B9" d="M38.729 25.378a16.96 16.96 0 0 1-.148 2.267c-1.089 8.151-8.061 14.446-16.512 14.464-9.222.02-16.712-7.439-16.731-16.66-.001-.372.011-.74.033-1.106.552-8.706 7.778-15.605 16.627-15.625 9.22-.021 16.711 7.439 16.731 16.66z"/><path fill="#752994" d="M22.313 25.18l-.035-16.284.032-.176a16.333 16.333 0 0 0-.313-.004c-8.849.02-16.075 6.92-16.627 15.626a16.882 16.882 0 0 0 .116 3.311l16.827-2.473z"/><path fill="#FFD000" d="M33.994 25.603c.015 6.789-5.479 12.305-12.271 12.318-6.792.015-12.31-5.477-12.324-12.266-.014-6.789 5.837-12.036 12.271-12.318 6.786-.299 12.31 5.476 12.324 12.266z"/><path fill="#FBB400" d="M17.761 21.57l10.086 2.951 5.94-1.155c-1.062-5.771-6.091-10.295-12.116-10.029-3.063.134-5.995 1.395-8.224 3.411l4.314 4.822z"/><circle fill="#FFF" cx="21.697" cy="25.629" r="6.463"/><path fill="#4A1473" d="M33.759 23.221l.093.53-18.748 3.28-.093-.53z"/><path fill="#4A1473" d="M27.877 26.054a6.204 6.204 0 0 1-4.377 5.5c-3.27.993-6.737-.856-7.731-4.124s.857-6.734 4.126-7.728a6.202 6.202 0 0 1 7.659 3.909l.513-.165c-1.168-3.411-4.852-5.316-8.329-4.259a6.738 6.738 0 0 0-4.484 8.398 6.744 6.744 0 0 0 8.403 4.483c2.817-.856 4.664-3.404 4.77-6.192l-.55.178z"/><path fill="#FFF" d="M31.24 17.262c-3.924-4.513-10.382-5.544-15.441-2.824l.423.382c4.813-2.475 10.906-1.467 14.611 2.796 4.354 5.008 3.821 12.625-1.187 16.979-5.009 4.354-12.625 3.821-16.979-1.188-3.614-4.157-3.857-10.111-.972-14.505l-.417-.346C8.229 23.15 8.472 29.4 12.262 33.76 16.811 38.992 24.768 39.549 30 35c5.231-4.549 5.788-12.506 1.24-17.738z"/><g fill="#4A1473" stroke="#4A1473" stroke-miterlimit="10"><path stroke-width=".5" d="M50.479 30.248c.101-.101.206-.105.316-.014.101.101.105.206.015.316a3.7 3.7 0 0 1-1.038.656 3.18 3.18 0 0 1-1.26.257 3.217 3.217 0 0 1-1.294-.259 3.369 3.369 0 0 1-1.78-1.772c-.176-.403-.264-.835-.265-1.294s.085-.893.259-1.302a3.353 3.353 0 0 1 1.773-1.786 3.23 3.23 0 0 1 1.293-.265 3.21 3.21 0 0 1 1.281.259c.403.174.758.409 1.062.707a3.4 3.4 0 0 1 1.01 2.331v.041c-.019.139-.092.207-.221.207l-6.016.014c.029.376.123.727.285 1.052.161.326.373.607.635.846s.563.428.903.569a2.73 2.73 0 0 0 1.073.211c.386-.001.744-.07 1.074-.209.332-.136.63-.326.895-.565zm-1.979-5.02a2.753 2.753 0 0 0-1.073.216c-.34.144-.638.334-.894.573a2.979 2.979 0 0 0-.632.849c-.164.325-.26.673-.287 1.04l5.782-.013c-.028-.367-.125-.714-.291-1.039s-.38-.606-.643-.845a3.126 3.126 0 0 0-.896-.569 2.701 2.701 0 0 0-1.066-.212z"/><path d="M62.361 22.367a8.024 8.024 0 0 0-1.544-1.024 4.04 4.04 0 0 0-1.892-.455c-.648.002-1.261.125-1.835.371s-1.072.583-1.494 1.013c-.421.43-.753.932-.997 1.507a4.657 4.657 0 0 0-.363 1.837c.002.648.125 1.26.371 1.834a4.682 4.682 0 0 0 1.004 1.494 4.66 4.66 0 0 0 1.498.997 4.617 4.617 0 0 0 1.836.363 4.682 4.682 0 0 0 1.918-.398 4.574 4.574 0 0 0 1.529-1.096c.062-.073.138-.128.229-.165s.187-.056.284-.056c.159-.001.278.054.358.164s.12.232.12.367c.001.195-.054.349-.164.459a5.65 5.65 0 0 1-1.906 1.371 5.774 5.774 0 0 1-2.366.491 5.67 5.67 0 0 1-2.277-.454 5.882 5.882 0 0 1-1.856-1.244 5.876 5.876 0 0 1-1.252-1.851c-.308-.709-.462-1.468-.464-2.275s.149-1.566.454-2.277a5.852 5.852 0 0 1 3.096-3.127 5.698 5.698 0 0 1 2.275-.463 5.603 5.603 0 0 1 2.305.472c.716.317 1.344.75 1.884 1.3a.94.94 0 0 1 .165.238c.05.098.074.195.074.293a.442.442 0 0 1-.164.368.607.607 0 0 1-.386.129.567.567 0 0 1-.44-.183zM68.437 22.538a4.061 4.061 0 0 1 1.681.354 4.637 4.637 0 0 1 2.373 2.372c.239.538.36 1.112.361 1.724a4.204 4.204 0 0 1-.345 1.699 4.652 4.652 0 0 1-.942 1.406 4.404 4.404 0 0 1-1.402.957 4.34 4.34 0 0 1-1.743.353 4.448 4.448 0 0 1-1.717-.326 4.44 4.44 0 0 1-1.406-.915 4.278 4.278 0 0 1-.957-1.393 4.39 4.39 0 0 1-.353-1.762 4.356 4.356 0 0 1 1.269-3.114 4.565 4.565 0 0 1 1.411-.957 4.828 4.828 0 0 1 1.77-.398zm-.035 1.156a3.182 3.182 0 0 0-1.274.26 3.291 3.291 0 0 0-2.004 3.051c.001.453.088.878.26 1.275a3.328 3.328 0 0 0 1.757 1.749c.397.171.823.256 1.276.255a3.3 3.3 0 0 0 3.042-2.017c.171-.399.256-.823.255-1.276a3.322 3.322 0 0 0-.969-2.338 3.296 3.296 0 0 0-2.343-.959zM74.201 23.058c0-.158.055-.293.164-.404a.552.552 0 0 1 .404-.165.545.545 0 0 1 .403.164c.11.109.166.244.166.403l.002.899c.391-.429.861-.782 1.411-1.059s1.149-.415 1.798-.417a.66.66 0 0 1 .469.164c.116.11.175.245.175.404a.53.53 0 0 1-.174.403c-.115.111-.271.166-.467.167-.44.001-.851.087-1.229.259a3.277 3.277 0 0 0-.999.7c-.287.294-.519.631-.695 1.011s-.271.778-.282 1.193l.009 4.057c0 .159-.055.294-.164.404s-.245.166-.403.166a.553.553 0 0 1-.404-.164.549.549 0 0 1-.166-.403l-.018-7.782zM80.396 27.505c.062.392.191.756.388 1.092s.438.626.727.87.616.437.983.576.753.209 1.157.208c.452-.001.874-.084 1.266-.25s.739-.396 1.045-.69c.109-.11.244-.166.403-.166s.294.055.404.164c.11.11.165.245.166.403a.553.553 0 0 1-.164.404c-.403.454-.858.776-1.366.967-.507.19-1.091.287-1.752.288a4.452 4.452 0 0 1-1.717-.326 4.452 4.452 0 0 1-1.406-.915 4.278 4.278 0 0 1-.957-1.393 4.39 4.39 0 0 1-.353-1.762 4.372 4.372 0 0 1 1.269-3.114 4.565 4.565 0 0 1 1.411-.957 4.838 4.838 0 0 1 1.771-.398 4.082 4.082 0 0 1 1.662.345 4.515 4.515 0 0 1 1.406.952c.405.402.729.87.976 1.401.246.532.37 1.104.371 1.716a.512.512 0 0 1-.183.423.608.608 0 0 1-.385.147l-7.122.015zm6.496-1.151a3.3 3.3 0 0 0-.406-1.063 3.25 3.25 0 0 0-.727-.853 3.534 3.534 0 0 0-.974-.567 3.128 3.128 0 0 0-1.147-.208 3.141 3.141 0 0 0-1.147.213c-.36.142-.685.332-.972.571s-.525.524-.714.855a3.483 3.483 0 0 0-.393 1.065l6.48-.013z"/></g></svg>