<svg xmlns="http://www.w3.org/2000/svg" viewBox="0 0 72.722 72.722" width="512" height="512"><path d="M66.137 18.801h-8.15c2.904-1.824 4.811-4.823 4.811-8.214C62.798 5.038 57.71.524 51.457.524c-5.306 0-11.589 9.093-15.096 14.97C32.854 9.618 26.569.524 21.264.524c-6.253 0-11.341 4.515-11.341 10.063 0 3.391 1.906 6.39 4.811 8.214H6.586C2.955 18.801 0 21.755 0 25.385v10.439c0 2.586 1.502 4.821 3.676 5.897v23.89a6.592 6.592 0 0 0 6.584 6.586h52.688a6.593 6.593 0 0 0 6.586-6.586V41.456a6.578 6.578 0 0 0 3.188-5.63v-10.44a6.592 6.592 0 0 0-6.585-6.585zM6.586 36.409A.586.586 0 0 1 6 35.825v-10.44c0-.322.263-.584.586-.584H33.36v11.607l-26.774.001zm32.775-11.608h26.776c.323 0 .586.262.586.584v10.439a.586.586 0 0 1-.586.584H39.361V24.801zM51.456 6.524c2.895 0 5.341 1.861 5.341 4.063s-2.446 4.063-5.341 4.063h-7.41c3.035-4.383 6.153-7.866 7.41-8.126zm-30.275-.005c1.32.264 4.454 3.749 7.493 8.133h-7.41c-2.895 0-5.341-1.861-5.341-4.063s2.446-4.065 5.258-4.07zM9.676 65.613V42.409h23.685v23.789H10.26a.584.584 0 0 1-.584-.585zm53.273.586H39.361v-23.79h24.174v23.203a.587.587 0 0 1-.586.587z" fill="#1d349e"/></svg>