<svg xmlns="http://www.w3.org/2000/svg" viewBox="0 0 512 512"><path d="M496.64 232.96c-28.16-74.24-102.4-112.64-184.32-97.28C232.96 56.32 122.88 2.56 12.8 0 5.12 0 0 5.12 0 12.8c2.56 110.08 56.32 220.16 133.12 299.52-12.8 79.36 23.04 156.16 97.28 184.32-12.8-33.28-15.36-71.68-5.12-110.08 12.8 7.68 25.6 15.36 38.4 20.48 5.12 2.56 10.24 2.56 15.36-2.56l128-128c2.56-2.56 2.56-7.68 0-12.8-5.12-12.8-12.8-25.6-20.48-35.84 38.4-10.24 76.8-7.68 110.08 5.12zm-281.6-17.92c-20.48 20.48-51.2 20.48-71.68 0-20.48-20.48-20.48-51.2 0-71.68 20.48-20.48 51.2-20.48 71.68 0 20.48 20.48 20.48 51.2 0 71.68zM504.32 368.64l-53.76-53.76c-10.24-10.24-25.6-10.24-35.84 0s-10.24 25.6 0 35.84l53.76 53.76c10.24 10.24 25.6 10.24 35.84 0s10.24-25.6 0-35.84zM404.48 468.48l-53.76-53.76c-10.24-10.24-25.6-10.24-35.84 0s-10.24 25.6 0 35.84l53.76 53.76c10.24 10.24 25.6 10.24 35.84 0s10.24-25.6 0-35.84zM473.6 440.32l-74.24-74.24c-10.24-10.24-25.6-10.24-35.84 0s-10.24 25.6 0 35.84l74.24 74.24c10.24 10.24 25.6 10.24 35.84 0s10.24-25.6 0-35.84z"/></svg>